<svg width="437" height="228" viewBox="0 0 437 228" fill="none" xmlns="http://www.w3.org/2000/svg">
<path d="M286.002 8.7998C286.002 4.38153 289.584 0.799805 294.002 0.799805H428.002C432.42 0.799805 436.002 4.38153 436.002 8.79981V52.7998C436.002 57.2181 432.42 60.7998 428.002 60.7998H294.002C289.584 60.7998 286.002 57.2181 286.002 52.7998V8.7998Z" fill="#636262"/>
<path d="M298.604 21.9138C298.604 20.9618 298.819 20.1078 299.248 19.3518C299.677 18.5865 300.261 17.9891 300.998 17.5598C301.745 17.1305 302.571 16.9158 303.476 16.9158C304.54 16.9158 305.469 17.1725 306.262 17.6858C307.055 18.1991 307.634 18.9271 307.998 19.8698H306.472C306.201 19.2818 305.809 18.8291 305.296 18.5118C304.792 18.1945 304.185 18.0358 303.476 18.0358C302.795 18.0358 302.183 18.1945 301.642 18.5118C301.101 18.8291 300.676 19.2818 300.368 19.8698C300.06 20.4485 299.906 21.1298 299.906 21.9138C299.906 22.6885 300.06 23.3698 300.368 23.9578C300.676 24.5365 301.101 24.9845 301.642 25.3018C302.183 25.6191 302.795 25.7778 303.476 25.7778C304.185 25.7778 304.792 25.6238 305.296 25.3158C305.809 24.9985 306.201 24.5458 306.472 23.9578H307.998C307.634 24.8911 307.055 25.6145 306.262 26.1278C305.469 26.6318 304.54 26.8838 303.476 26.8838C302.571 26.8838 301.745 26.6738 300.998 26.2538C300.261 25.8245 299.677 25.2318 299.248 24.4758C298.819 23.7198 298.604 22.8658 298.604 21.9138ZM313.24 26.9258C312.522 26.9258 311.868 26.7625 311.28 26.4358C310.702 26.1091 310.244 25.6471 309.908 25.0498C309.582 24.4431 309.418 23.7431 309.418 22.9498C309.418 22.1658 309.586 21.4751 309.922 20.8778C310.268 20.2711 310.734 19.8091 311.322 19.4918C311.91 19.1651 312.568 19.0018 313.296 19.0018C314.024 19.0018 314.682 19.1651 315.27 19.4918C315.858 19.8091 316.32 20.2665 316.656 20.8638C317.002 21.4611 317.174 22.1565 317.174 22.9498C317.174 23.7431 316.997 24.4431 316.642 25.0498C316.297 25.6471 315.826 26.1091 315.228 26.4358C314.631 26.7625 313.968 26.9258 313.24 26.9258ZM313.24 25.8058C313.698 25.8058 314.127 25.6985 314.528 25.4838C314.93 25.2691 315.252 24.9471 315.494 24.5178C315.746 24.0885 315.872 23.5658 315.872 22.9498C315.872 22.3338 315.751 21.8111 315.508 21.3818C315.266 20.9525 314.948 20.6351 314.556 20.4298C314.164 20.2151 313.74 20.1078 313.282 20.1078C312.816 20.1078 312.386 20.2151 311.994 20.4298C311.612 20.6351 311.304 20.9525 311.07 21.3818C310.837 21.8111 310.72 22.3338 310.72 22.9498C310.72 23.5751 310.832 24.1025 311.056 24.5318C311.29 24.9611 311.598 25.2831 311.98 25.4978C312.363 25.7031 312.783 25.8058 313.24 25.8058ZM321.705 25.6238L324.085 19.1278H325.443L322.433 26.7998H320.949L317.939 19.1278H319.311L321.705 25.6238ZM333.697 22.6698C333.697 22.9125 333.683 23.1691 333.655 23.4398H327.523C327.57 24.1958 327.826 24.7885 328.293 25.2178C328.769 25.6378 329.343 25.8478 330.015 25.8478C330.566 25.8478 331.023 25.7218 331.387 25.4698C331.76 25.2085 332.022 24.8631 332.171 24.4338H333.543C333.338 25.1711 332.927 25.7731 332.311 26.2398C331.695 26.6971 330.93 26.9258 330.015 26.9258C329.287 26.9258 328.634 26.7625 328.055 26.4358C327.486 26.1091 327.038 25.6471 326.711 25.0498C326.384 24.4431 326.221 23.7431 326.221 22.9498C326.221 22.1565 326.38 21.4611 326.697 20.8638C327.014 20.2665 327.458 19.8091 328.027 19.4918C328.606 19.1651 329.268 19.0018 330.015 19.0018C330.743 19.0018 331.387 19.1605 331.947 19.4778C332.507 19.7951 332.936 20.2338 333.235 20.7938C333.543 21.3445 333.697 21.9698 333.697 22.6698ZM332.381 22.4038C332.381 21.9185 332.274 21.5031 332.059 21.1578C331.844 20.8031 331.55 20.5371 331.177 20.3598C330.813 20.1731 330.407 20.0798 329.959 20.0798C329.315 20.0798 328.764 20.2851 328.307 20.6958C327.859 21.1065 327.602 21.6758 327.537 22.4038H332.381ZM336.653 20.3738C336.877 19.9351 337.194 19.5945 337.605 19.3518C338.025 19.1091 338.533 18.9878 339.131 18.9878V20.3038H338.795C337.367 20.3038 336.653 21.0785 336.653 22.6278V26.7998H335.379V19.1278H336.653V20.3738ZM340.125 22.9358C340.125 22.1518 340.284 21.4658 340.601 20.8778C340.919 20.2805 341.353 19.8185 341.903 19.4918C342.463 19.1651 343.084 19.0018 343.765 19.0018C344.437 19.0018 345.021 19.1465 345.515 19.4358C346.01 19.7251 346.379 20.0891 346.621 20.5278V19.1278H347.909V26.7998H346.621V25.3718C346.369 25.8198 345.991 26.1931 345.487 26.4918C344.993 26.7811 344.414 26.9258 343.751 26.9258C343.07 26.9258 342.454 26.7578 341.903 26.4218C341.353 26.0858 340.919 25.6145 340.601 25.0078C340.284 24.4011 340.125 23.7105 340.125 22.9358ZM346.621 22.9498C346.621 22.3711 346.505 21.8671 346.271 21.4378C346.038 21.0085 345.721 20.6818 345.319 20.4578C344.927 20.2245 344.493 20.1078 344.017 20.1078C343.541 20.1078 343.107 20.2198 342.715 20.4438C342.323 20.6678 342.011 20.9945 341.777 21.4238C341.544 21.8531 341.427 22.3571 341.427 22.9358C341.427 23.5238 341.544 24.0371 341.777 24.4758C342.011 24.9051 342.323 25.2365 342.715 25.4698C343.107 25.6938 343.541 25.8058 344.017 25.8058C344.493 25.8058 344.927 25.6938 345.319 25.4698C345.721 25.2365 346.038 24.9051 346.271 24.4758C346.505 24.0371 346.621 23.5285 346.621 22.9498ZM353.226 19.0018C353.889 19.0018 354.468 19.1465 354.962 19.4358C355.466 19.7251 355.84 20.0891 356.082 20.5278V19.1278H357.37V26.9678C357.37 27.6678 357.221 28.2885 356.922 28.8298C356.624 29.3805 356.194 29.8098 355.634 30.1178C355.084 30.4258 354.44 30.5798 353.702 30.5798C352.694 30.5798 351.854 30.3418 351.182 29.8658C350.51 29.3898 350.114 28.7411 349.992 27.9198H351.252C351.392 28.3865 351.682 28.7598 352.12 29.0398C352.559 29.3291 353.086 29.4738 353.702 29.4738C354.402 29.4738 354.972 29.2545 355.41 28.8158C355.858 28.3771 356.082 27.7611 356.082 26.9678V25.3578C355.83 25.8058 355.457 26.1791 354.962 26.4778C354.468 26.7765 353.889 26.9258 353.226 26.9258C352.545 26.9258 351.924 26.7578 351.364 26.4218C350.814 26.0858 350.38 25.6145 350.062 25.0078C349.745 24.4011 349.586 23.7105 349.586 22.9358C349.586 22.1518 349.745 21.4658 350.062 20.8778C350.38 20.2805 350.814 19.8185 351.364 19.4918C351.924 19.1651 352.545 19.0018 353.226 19.0018ZM356.082 22.9498C356.082 22.3711 355.966 21.8671 355.732 21.4378C355.499 21.0085 355.182 20.6818 354.78 20.4578C354.388 20.2245 353.954 20.1078 353.478 20.1078C353.002 20.1078 352.568 20.2198 352.176 20.4438C351.784 20.6678 351.472 20.9945 351.238 21.4238C351.005 21.8531 350.888 22.3571 350.888 22.9358C350.888 23.5238 351.005 24.0371 351.238 24.4758C351.472 24.9051 351.784 25.2365 352.176 25.4698C352.568 25.6938 353.002 25.8058 353.478 25.8058C353.954 25.8058 354.388 25.6938 354.78 25.4698C355.182 25.2365 355.499 24.9051 355.732 24.4758C355.966 24.0371 356.082 23.5285 356.082 22.9498ZM366.523 22.6698C366.523 22.9125 366.509 23.1691 366.481 23.4398H360.349C360.396 24.1958 360.653 24.7885 361.119 25.2178C361.595 25.6378 362.169 25.8478 362.841 25.8478C363.392 25.8478 363.849 25.7218 364.213 25.4698C364.587 25.2085 364.848 24.8631 364.997 24.4338H366.369C366.164 25.1711 365.753 25.7731 365.137 26.2398C364.521 26.6971 363.756 26.9258 362.841 26.9258C362.113 26.9258 361.46 26.7625 360.881 26.4358C360.312 26.1091 359.864 25.6471 359.537 25.0498C359.211 24.4431 359.047 23.7431 359.047 22.9498C359.047 22.1565 359.206 21.4611 359.523 20.8638C359.841 20.2665 360.284 19.8091 360.853 19.4918C361.432 19.1651 362.095 19.0018 362.841 19.0018C363.569 19.0018 364.213 19.1605 364.773 19.4778C365.333 19.7951 365.763 20.2338 366.061 20.7938C366.369 21.3445 366.523 21.9698 366.523 22.6698ZM365.207 22.4038C365.207 21.9185 365.1 21.5031 364.885 21.1578C364.671 20.8031 364.377 20.5371 364.003 20.3598C363.639 20.1731 363.233 20.0798 362.785 20.0798C362.141 20.0798 361.591 20.2851 361.133 20.6958C360.685 21.1065 360.429 21.6758 360.363 22.4038H365.207ZM370.486 22.8798C370.486 22.0771 370.635 21.3725 370.934 20.7658C371.242 20.1591 371.657 19.6925 372.18 19.3658C372.702 19.0391 373.286 18.8758 373.93 18.8758C374.48 18.8758 374.961 18.9878 375.372 19.2118C375.792 19.4358 376.114 19.7298 376.338 20.0938V18.9878H378.732V26.7998H376.338V25.6938C376.104 26.0578 375.778 26.3518 375.358 26.5758C374.947 26.7998 374.466 26.9118 373.916 26.9118C373.281 26.9118 372.702 26.7485 372.18 26.4218C371.657 26.0858 371.242 25.6145 370.934 25.0078C370.635 24.3918 370.486 23.6825 370.486 22.8798ZM376.338 22.8938C376.338 22.2965 376.17 21.8251 375.834 21.4798C375.507 21.1345 375.106 20.9618 374.63 20.9618C374.154 20.9618 373.748 21.1345 373.412 21.4798C373.085 21.8158 372.922 22.2825 372.922 22.8798C372.922 23.4771 373.085 23.9531 373.412 24.3078C373.748 24.6531 374.154 24.8258 374.63 24.8258C375.106 24.8258 375.507 24.6531 375.834 24.3078C376.17 23.9625 376.338 23.4911 376.338 22.8938ZM383.642 26.9118C382.96 26.9118 382.354 26.7951 381.822 26.5618C381.29 26.3285 380.87 26.0111 380.562 25.6098C380.254 25.1991 380.081 24.7418 380.044 24.2378H382.41C382.438 24.5085 382.564 24.7278 382.788 24.8958C383.012 25.0638 383.287 25.1478 383.614 25.1478C383.912 25.1478 384.141 25.0918 384.3 24.9798C384.468 24.8585 384.552 24.7045 384.552 24.5178C384.552 24.2938 384.435 24.1305 384.202 24.0278C383.968 23.9158 383.59 23.7945 383.068 23.6638C382.508 23.5331 382.041 23.3978 381.668 23.2578C381.294 23.1085 380.972 22.8798 380.702 22.5718C380.431 22.2545 380.296 21.8298 380.296 21.2978C380.296 20.8498 380.417 20.4438 380.66 20.0798C380.912 19.7065 381.276 19.4125 381.752 19.1978C382.237 18.9831 382.811 18.8758 383.474 18.8758C384.454 18.8758 385.224 19.1185 385.784 19.6038C386.353 20.0891 386.68 20.7331 386.764 21.5358H384.552C384.514 21.2651 384.393 21.0505 384.188 20.8918C383.992 20.7331 383.73 20.6538 383.404 20.6538C383.124 20.6538 382.909 20.7098 382.76 20.8218C382.61 20.9245 382.536 21.0691 382.536 21.2558C382.536 21.4798 382.652 21.6478 382.886 21.7598C383.128 21.8718 383.502 21.9838 384.006 22.0958C384.584 22.2451 385.056 22.3945 385.42 22.5438C385.784 22.6838 386.101 22.9171 386.372 23.2438C386.652 23.5611 386.796 23.9905 386.806 24.5318C386.806 24.9891 386.675 25.3998 386.414 25.7638C386.162 26.1185 385.793 26.3985 385.308 26.6038C384.832 26.8091 384.276 26.9118 383.642 26.9118ZM393.631 16.4398V26.7998H391.237V16.4398H393.631ZM398.922 26.9118C398.157 26.9118 397.466 26.7485 396.85 26.4218C396.243 26.0951 395.763 25.6285 395.408 25.0218C395.063 24.4151 394.89 23.7058 394.89 22.8938C394.89 22.0911 395.067 21.3865 395.422 20.7798C395.777 20.1638 396.262 19.6925 396.878 19.3658C397.494 19.0391 398.185 18.8758 398.95 18.8758C399.715 18.8758 400.406 19.0391 401.022 19.3658C401.638 19.6925 402.123 20.1638 402.478 20.7798C402.833 21.3865 403.01 22.0911 403.01 22.8938C403.01 23.6965 402.828 24.4058 402.464 25.0218C402.109 25.6285 401.619 26.0951 400.994 26.4218C400.378 26.7485 399.687 26.9118 398.922 26.9118ZM398.922 24.8398C399.379 24.8398 399.767 24.6718 400.084 24.3358C400.411 23.9998 400.574 23.5191 400.574 22.8938C400.574 22.2685 400.415 21.7878 400.098 21.4518C399.79 21.1158 399.407 20.9478 398.95 20.9478C398.483 20.9478 398.096 21.1158 397.788 21.4518C397.48 21.7785 397.326 22.2591 397.326 22.8938C397.326 23.5191 397.475 23.9998 397.774 24.3358C398.082 24.6718 398.465 24.8398 398.922 24.8398ZM415.494 18.9878L413.38 26.7998H410.734L409.502 21.7318L408.228 26.7998H405.596L403.468 18.9878H405.862L406.968 24.5738L408.284 18.9878H410.818L412.148 24.5458L413.24 18.9878H415.494ZM298.394 40.8798C298.394 40.0771 298.543 39.3725 298.842 38.7658C299.15 38.1591 299.565 37.6925 300.088 37.3658C300.611 37.0391 301.194 36.8758 301.838 36.8758C302.389 36.8758 302.869 36.9878 303.28 37.2118C303.7 37.4358 304.022 37.7298 304.246 38.0938V36.9878H306.64V44.7998H304.246V43.6938C304.013 44.0578 303.686 44.3518 303.266 44.5758C302.855 44.7998 302.375 44.9118 301.824 44.9118C301.189 44.9118 300.611 44.7485 300.088 44.4218C299.565 44.0858 299.15 43.6145 298.842 43.0078C298.543 42.3918 298.394 41.6825 298.394 40.8798ZM304.246 40.8938C304.246 40.2965 304.078 39.8251 303.742 39.4798C303.415 39.1345 303.014 38.9618 302.538 38.9618C302.062 38.9618 301.656 39.1345 301.32 39.4798C300.993 39.8158 300.83 40.2825 300.83 40.8798C300.83 41.4771 300.993 41.9531 301.32 42.3078C301.656 42.6531 302.062 42.8258 302.538 42.8258C303.014 42.8258 303.415 42.6531 303.742 42.3078C304.078 41.9625 304.246 41.4911 304.246 40.8938ZM311.55 44.9118C310.869 44.9118 310.262 44.7951 309.73 44.5618C309.198 44.3285 308.778 44.0111 308.47 43.6098C308.162 43.1991 307.989 42.7418 307.952 42.2378H310.318C310.346 42.5085 310.472 42.7278 310.696 42.8958C310.92 43.0638 311.195 43.1478 311.522 43.1478C311.821 43.1478 312.049 43.0918 312.208 42.9798C312.376 42.8585 312.46 42.7045 312.46 42.5178C312.46 42.2938 312.343 42.1305 312.11 42.0278C311.877 41.9158 311.499 41.7945 310.976 41.6638C310.416 41.5331 309.949 41.3978 309.576 41.2578C309.203 41.1085 308.881 40.8798 308.61 40.5718C308.339 40.2545 308.204 39.8298 308.204 39.2978C308.204 38.8498 308.325 38.4438 308.568 38.0798C308.82 37.7065 309.184 37.4125 309.66 37.1978C310.145 36.9831 310.719 36.8758 311.382 36.8758C312.362 36.8758 313.132 37.1185 313.692 37.6038C314.261 38.0891 314.588 38.7331 314.672 39.5358H312.46C312.423 39.2651 312.301 39.0505 312.096 38.8918C311.9 38.7331 311.639 38.6538 311.312 38.6538C311.032 38.6538 310.817 38.7098 310.668 38.8218C310.519 38.9245 310.444 39.0691 310.444 39.2558C310.444 39.4798 310.561 39.6478 310.794 39.7598C311.037 39.8718 311.41 39.9838 311.914 40.0958C312.493 40.2451 312.964 40.3945 313.328 40.5438C313.692 40.6838 314.009 40.9171 314.28 41.2438C314.56 41.5611 314.705 41.9905 314.714 42.5318C314.714 42.9891 314.583 43.3998 314.322 43.7638C314.07 44.1185 313.701 44.3985 313.216 44.6038C312.74 44.8091 312.185 44.9118 311.55 44.9118ZM326.579 41.9438C326.579 42.4571 326.444 42.9331 326.173 43.3718C325.912 43.8011 325.52 44.1558 324.997 44.4358C324.484 44.7065 323.873 44.8558 323.163 44.8838V46.0178H322.267V44.8698C321.278 44.7858 320.48 44.4918 319.873 43.9878C319.267 43.4745 318.945 42.7791 318.907 41.9018H321.455C321.511 42.4618 321.782 42.8211 322.267 42.9798V40.7678C321.539 40.5811 320.956 40.3991 320.517 40.2218C320.088 40.0445 319.71 39.7598 319.383 39.3678C319.057 38.9758 318.893 38.4391 318.893 37.7578C318.893 36.9085 319.206 36.2271 319.831 35.7138C320.466 35.2005 321.278 34.9111 322.267 34.8458V33.7118H323.163V34.8458C324.143 34.9205 324.918 35.2051 325.487 35.6998C326.057 36.1945 326.374 36.8805 326.439 37.7578H323.877C323.821 37.2538 323.583 36.9271 323.163 36.7778V38.9478C323.938 39.1625 324.535 39.3538 324.955 39.5218C325.375 39.6898 325.749 39.9698 326.075 40.3618C326.411 40.7445 326.579 41.2718 326.579 41.9438ZM321.427 37.6458C321.427 37.8791 321.497 38.0751 321.637 38.2338C321.787 38.3925 321.997 38.5325 322.267 38.6538V36.7078C322.006 36.7545 321.801 36.8571 321.651 37.0158C321.502 37.1651 321.427 37.3751 321.427 37.6458ZM323.163 43.0218C323.443 42.9751 323.663 42.8631 323.821 42.6858C323.989 42.5085 324.073 42.2891 324.073 42.0278C324.073 41.7851 323.994 41.5891 323.835 41.4398C323.686 41.2811 323.462 41.1458 323.163 41.0338V43.0218ZM328.038 42.8818C328.356 42.6298 328.5 42.5131 328.472 42.5318C329.387 41.7758 330.106 41.1551 330.628 40.6698C331.16 40.1845 331.608 39.6758 331.972 39.1438C332.336 38.6118 332.518 38.0938 332.518 37.5898C332.518 37.2071 332.43 36.9085 332.252 36.6938C332.075 36.4791 331.809 36.3718 331.454 36.3718C331.1 36.3718 330.82 36.5071 330.614 36.7778C330.418 37.0391 330.32 37.4125 330.32 37.8978H328.01C328.029 37.1045 328.197 36.4418 328.514 35.9098C328.841 35.3778 329.266 34.9858 329.788 34.7338C330.32 34.4818 330.908 34.3558 331.552 34.3558C332.663 34.3558 333.498 34.6405 334.058 35.2098C334.628 35.7791 334.912 36.5211 334.912 37.4358C334.912 38.4345 334.572 39.3631 333.89 40.2218C333.209 41.0711 332.341 41.9018 331.286 42.7138H335.066V44.6598H328.038V42.8818ZM343.316 36.6658H338.948V38.5978C339.135 38.3925 339.396 38.2245 339.732 38.0938C340.068 37.9631 340.432 37.8978 340.824 37.8978C341.524 37.8978 342.103 38.0565 342.56 38.3738C343.027 38.6911 343.368 39.1018 343.582 39.6058C343.797 40.1098 343.904 40.6558 343.904 41.2438C343.904 42.3358 343.596 43.2038 342.98 43.8478C342.364 44.4825 341.496 44.7998 340.376 44.7998C339.63 44.7998 338.981 44.6738 338.43 44.4218C337.88 44.1605 337.455 43.8011 337.156 43.3438C336.858 42.8865 336.694 42.3591 336.666 41.7618H339.004C339.06 42.0511 339.196 42.2938 339.41 42.4898C339.625 42.6765 339.919 42.7698 340.292 42.7698C340.731 42.7698 341.058 42.6298 341.272 42.3498C341.487 42.0698 341.594 41.6965 341.594 41.2298C341.594 40.7725 341.482 40.4225 341.258 40.1798C341.034 39.9371 340.708 39.8158 340.278 39.8158C339.961 39.8158 339.7 39.8951 339.494 40.0538C339.289 40.2031 339.154 40.4038 339.088 40.6558H336.778V34.5658H343.316V36.6658ZM350.798 31.4998L347.046 47.4178H344.736L348.488 31.4998H350.798ZM361.775 36.9038C362.746 36.9038 363.516 37.1978 364.085 37.7858C364.664 38.3738 364.953 39.1905 364.953 40.2358V44.7998H362.573V40.5578C362.573 40.0538 362.438 39.6665 362.167 39.3958C361.906 39.1158 361.542 38.9758 361.075 38.9758C360.609 38.9758 360.24 39.1158 359.969 39.3958C359.708 39.6665 359.577 40.0538 359.577 40.5578V44.7998H357.197V40.5578C357.197 40.0538 357.062 39.6665 356.791 39.3958C356.53 39.1158 356.166 38.9758 355.699 38.9758C355.233 38.9758 354.864 39.1158 354.593 39.3958C354.332 39.6665 354.201 40.0538 354.201 40.5578V44.7998H351.807V36.9878H354.201V37.9678C354.444 37.6411 354.761 37.3845 355.153 37.1978C355.545 37.0018 355.989 36.9038 356.483 36.9038C357.071 36.9038 357.594 37.0298 358.051 37.2818C358.518 37.5338 358.882 37.8931 359.143 38.3598C359.414 37.9305 359.783 37.5805 360.249 37.3098C360.716 37.0391 361.225 36.9038 361.775 36.9038ZM370.184 44.9118C369.418 44.9118 368.728 44.7485 368.112 44.4218C367.505 44.0951 367.024 43.6285 366.67 43.0218C366.324 42.4151 366.152 41.7058 366.152 40.8938C366.152 40.0911 366.329 39.3865 366.684 38.7798C367.038 38.1638 367.524 37.6925 368.14 37.3658C368.756 37.0391 369.446 36.8758 370.212 36.8758C370.977 36.8758 371.668 37.0391 372.284 37.3658C372.9 37.6925 373.385 38.1638 373.74 38.7798C374.094 39.3865 374.272 40.0911 374.272 40.8938C374.272 41.6965 374.09 42.4058 373.726 43.0218C373.371 43.6285 372.881 44.0951 372.256 44.4218C371.64 44.7485 370.949 44.9118 370.184 44.9118ZM370.184 42.8398C370.641 42.8398 371.028 42.6718 371.346 42.3358C371.672 41.9998 371.836 41.5191 371.836 40.8938C371.836 40.2685 371.677 39.7878 371.36 39.4518C371.052 39.1158 370.669 38.9478 370.212 38.9478C369.745 38.9478 369.358 39.1158 369.05 39.4518C368.742 39.7785 368.588 40.2591 368.588 40.8938C368.588 41.5191 368.737 41.9998 369.036 42.3358C369.344 42.6718 369.726 42.8398 370.184 42.8398ZM380.302 36.9038C381.216 36.9038 381.944 37.2025 382.486 37.7998C383.036 38.3878 383.312 39.1998 383.312 40.2358V44.7998H380.932V40.5578C380.932 40.0351 380.796 39.6291 380.526 39.3398C380.255 39.0505 379.891 38.9058 379.434 38.9058C378.976 38.9058 378.612 39.0505 378.342 39.3398C378.071 39.6291 377.936 40.0351 377.936 40.5578V44.7998H375.542V36.9878H377.936V38.0238C378.178 37.6785 378.505 37.4078 378.916 37.2118C379.326 37.0065 379.788 36.9038 380.302 36.9038ZM389.329 42.7698V44.7998H388.111C387.243 44.7998 386.567 44.5898 386.081 44.1698C385.596 43.7405 385.353 43.0451 385.353 42.0838V38.9758H384.401V36.9878H385.353V35.0838H387.747V36.9878H389.315V38.9758H387.747V42.1118C387.747 42.3451 387.803 42.5131 387.915 42.6158C388.027 42.7185 388.214 42.7698 388.475 42.7698H389.329ZM395.465 36.9038C396.361 36.9038 397.08 37.2025 397.621 37.7998C398.162 38.3878 398.433 39.1998 398.433 40.2358V44.7998H396.053V40.5578C396.053 40.0351 395.918 39.6291 395.647 39.3398C395.376 39.0505 395.012 38.9058 394.555 38.9058C394.098 38.9058 393.734 39.0505 393.463 39.3398C393.192 39.6291 393.057 40.0351 393.057 40.5578V44.7998H390.663V34.4398H393.057V38.0378C393.3 37.6925 393.631 37.4171 394.051 37.2118C394.471 37.0065 394.942 36.9038 395.465 36.9038Z" fill="white"/>
<path d="M354.602 76.7998L354.602 60.7998L367.402 60.7998L354.602 76.7998Z" fill="#636262"/>
<path d="M43.7002 132.399L42.7002 136.799C42.7002 136.799 46.3002 141.199 49.4002 140.899C52.5002 140.599 49.5002 137.099 49.5002 137.099L49.1002 133.999C49.1002 133.999 47.8002 134.199 46.5002 133.899C45.3002 133.499 43.7002 132.399 43.7002 132.399Z" fill="white"/>
<path d="M49.1004 141.199C46.0004 141.199 42.7004 137.199 42.5004 136.999C42.5004 136.899 42.4004 136.899 42.4004 136.799L43.4004 132.399C43.4004 132.299 43.5004 132.299 43.6004 132.199C43.7004 132.199 43.8004 132.199 43.8004 132.199C43.8004 132.199 45.3004 133.299 46.6004 133.599C47.8004 133.899 49.1004 133.699 49.1004 133.699C49.2004 133.699 49.2004 133.699 49.3004 133.699C49.4004 133.699 49.4004 133.799 49.4004 133.899L49.8004 136.999C50.1004 137.399 51.5004 139.099 51.0004 140.299C50.8004 140.799 50.3004 141.099 49.5004 141.199C49.4004 141.199 49.2004 141.199 49.1004 141.199ZM43.0004 136.799C43.5004 137.399 46.7004 140.999 49.4004 140.699C50.0004 140.599 50.4004 140.399 50.5004 140.099C50.8004 139.299 49.7004 137.799 49.3004 137.299L49.2004 137.199L48.9004 134.299C48.4004 134.299 47.5004 134.399 46.5004 134.099C45.5004 133.799 44.4004 133.199 43.9004 132.799L43.0004 136.799Z" fill="#363637"/>
<path d="M42.3996 128.499C42.4996 125.599 44.9996 123.299 47.9996 123.399C50.9996 123.499 53.2996 125.999 53.1996 128.899C53.0996 131.799 50.5996 134.099 47.5996 133.999C44.5996 133.799 42.2996 131.399 42.3996 128.499Z" fill="white"/>
<path d="M47.8003 134.199C47.7003 134.199 47.7003 134.199 47.6003 134.199C46.1003 134.099 44.7003 133.499 43.7003 132.399C42.7003 131.299 42.1003 129.899 42.2003 128.399C42.3003 125.299 44.9003 122.999 48.0003 123.099C49.5003 123.199 50.9003 123.799 51.9003 124.899C52.9003 125.999 53.5003 127.399 53.4003 128.899C53.3003 130.399 52.7003 131.699 51.6003 132.799C50.5003 133.699 49.2003 134.199 47.8003 134.199ZM47.7003 123.599C45.0003 123.599 42.7003 125.699 42.6003 128.399C42.5003 129.699 43.0003 130.999 44.0003 131.999C44.9003 132.999 46.2003 133.599 47.6003 133.599C49.0003 133.699 50.3003 133.199 51.3003 132.299C52.3003 131.399 52.9003 130.099 52.9003 128.799C53.0003 127.499 52.5003 126.199 51.5003 125.199C50.6003 124.199 49.3003 123.599 47.9003 123.599C47.9003 123.599 47.8003 123.599 47.7003 123.599Z" fill="#363637"/>
<path d="M40.7998 129.199C40.7998 128.099 41.7998 127.299 42.8998 127.299C43.9998 127.299 44.8998 128.299 44.8998 129.299C44.8998 130.399 43.8998 131.199 42.7998 131.199C41.6998 131.199 40.7998 130.299 40.7998 129.199Z" fill="white"/>
<path d="M42.8996 131.499C42.7996 131.499 42.7996 131.499 42.8996 131.499C42.1996 131.499 41.5996 131.199 41.1996 130.799C40.7996 130.399 40.5996 129.799 40.5996 129.199C40.5996 127.999 41.6996 126.999 42.9996 127.099C44.2996 127.099 45.2996 128.199 45.1996 129.399C45.1996 129.999 44.8996 130.499 44.4996 130.899C43.9996 131.299 43.4996 131.499 42.8996 131.499ZM41.0996 129.199C41.0996 129.699 41.2996 130.099 41.5996 130.399C41.8996 130.699 42.3996 130.899 42.8996 130.999C43.3996 130.999 43.7996 130.899 44.1996 130.499C44.5996 130.199 44.7996 129.799 44.7996 129.299C44.7996 128.399 44.0996 127.599 43.0996 127.499C43.0996 127.499 43.0996 127.499 42.9996 127.499C41.8996 127.599 41.0996 128.299 41.0996 129.199Z" fill="#363637"/>
<path d="M41.7998 128.499C42.2998 127.999 43.5998 127.899 43.9998 129.399L41.7998 128.499Z" fill="white"/>
<path d="M44.1 129.599C44 129.599 43.9 129.499 43.9 129.399C43.8 128.799 43.5 128.499 43.1 128.399C42.7 128.299 42.3 128.399 42.1 128.599C42 128.699 41.8 128.699 41.7 128.599C41.6 128.499 41.6 128.299 41.7 128.199C42.1 127.899 42.7 127.699 43.2 127.799C43.8 127.999 44.2 128.399 44.4 129.199C44.3 129.399 44.3 129.599 44.1 129.599Z" fill="#363637"/>
<path d="M42.2998 129.199C42.6998 128.799 43.5998 128.999 43.9998 129.399L42.2998 129.199Z" fill="white"/>
<path d="M43.9998 129.599C43.8998 129.599 43.8998 129.599 43.7998 129.499C43.5998 129.299 43.2998 129.199 42.8998 129.199C42.6998 129.199 42.4998 129.199 42.3998 129.299C42.2998 129.399 42.0998 129.399 41.9998 129.299C41.8998 129.199 41.8998 128.999 41.9998 128.899C42.1998 128.699 42.4998 128.599 42.7998 128.599C43.2998 128.599 43.7998 128.799 43.9998 129.099C44.0998 129.199 44.0998 129.399 43.9998 129.599Z" fill="#363637"/>
<path d="M52.8995 125.199C52.8995 125.199 50.9995 120.499 45.8995 121.599C40.4995 122.799 40.5995 126.999 40.5995 126.999C40.5995 126.999 37.6995 127.699 36.1995 128.399C34.5995 129.099 34.9995 129.799 34.9995 129.799L52.1995 125.399L52.8995 125.199Z" fill="#2482F9" stroke="#0D1B44" stroke-width="0.5" stroke-miterlimit="10"/>
<path d="M44.5996 130.399C44.5996 130.399 45.7996 129.899 45.9996 128.699C46.2996 127.499 46.4996 127.399 46.4996 127.399C46.4996 127.399 46.9996 127.499 49.3996 127.299C51.7996 127.099 53.5996 127.299 53.5996 127.299C53.5996 127.299 53.7996 126.999 53.5996 126.299C53.3996 125.599 52.9996 125.199 52.9996 125.199L43.5996 127.599C43.5996 127.599 44.0996 127.699 44.4996 128.199C44.8996 128.699 44.5996 130.399 44.5996 130.399Z" fill="#363637"/>
<path d="M29.6998 173.399C29.6998 173.399 22.3998 187.999 18.3998 191.499C14.3998 194.999 4.2998 206.999 4.2998 206.999L10.3998 213.299C10.3998 213.299 19.4998 205.099 23.9998 200.899C28.4998 196.699 38.9998 184.399 38.9998 184.399L29.6998 173.399Z" fill="#2482F9"/>
<path d="M27.5004 166C27.5004 166 24.2004 171.799 43.5004 194.299C48.8004 200.499 58.8004 218 58.8004 218L65.5004 212.9C65.5004 212.9 57.2004 193.1 55.4004 190.4C53.5004 187.7 47.4004 171.299 47.4004 171.299C47.4004 171.299 38.6004 168.199 35.3004 167.699C32.0004 167.399 27.5004 166 27.5004 166Z" fill="#2482F9"/>
<path d="M51.6998 138.399C51.6998 138.399 54.3998 139.999 55.8998 143.799C57.3998 147.599 60.3998 157.199 60.3998 157.199L75.4998 164.499L74.3998 170.799C74.3998 170.799 57.0998 168.399 54.3998 166.299C51.7998 164.199 51.2998 160.999 51.2998 160.999L51.6998 138.399Z" fill="#A6CDFC" stroke="#0D1B44" stroke-width="0.75" stroke-miterlimit="10"/>
<path d="M26.8004 168.999C25.5004 167.099 27.5004 155.899 29.8004 149.999C32.1004 144.099 36.0005 133.699 43.2005 134.899C50.4005 136.099 52.8005 137.899 53.6005 141.399C54.4005 144.799 55.4004 145.499 53.3004 153.999C52.5004 157.399 53.0004 174.599 46.8004 172.199C36.6004 172.299 28.1004 170.899 26.8004 168.999Z" fill="#A6CDFC" stroke="#0D1B44" stroke-miterlimit="10"/>
<path d="M39.9002 137.299C32.1002 135.399 28.6003 155.499 32.1003 160.499C35.6003 165.499 52.1003 170.699 52.1003 170.699L53.5003 164.099C53.5003 164.099 43.1003 157.899 41.7003 156.099C40.5003 154.299 47.7002 139.199 39.9002 137.299Z" fill="#E9F3FF" stroke="#0D1B44" stroke-width="0.75" stroke-miterlimit="10"/>
<path d="M53.5 163.8C52.6 163.8 43.6 158.8 41.7 156.1C40.6 154.5 41.4 151.8 42.3 148.9C42.9 146.8 43.6 144.6 43.4 143.1C43.3 142 42.8 139.8 41.8 138.6C41.7 138.5 41.7 138.3 41.8 138.2C41.9 138.1 42.1 138.1 42.2 138.2C43.2 139.4 43.8 141.5 43.9 143C44.1 144.7 43.4 146.9 42.8 149C42 151.6 41.2 154.4 42.1 155.7C44 158.4 52.7 162.9 53.4 163.2C53.5 163.2 53.6 163.3 53.6 163.4C53.7 163.6 53.7 163.8 53.5 163.8Z" fill="#0D1B44"/>
<path d="M52.4005 170.699H52.3005C52.2005 170.599 51.5005 170.399 50.7005 170.199C46.0005 168.799 33.7005 164.899 31.4005 158.999C30.5005 156.699 30.7005 153.999 30.8005 151.599C30.8005 151.199 30.8005 150.899 30.8005 150.499C30.8005 150.399 30.9005 150.299 31.1005 150.299C31.2005 150.299 31.3005 150.399 31.3005 150.599C31.3005 150.899 31.3005 151.299 31.3005 151.699C31.2005 153.999 31.1005 156.699 31.9005 158.899C34.1005 164.599 46.3005 168.399 50.9005 169.799C51.9005 170.099 52.4005 170.299 52.5005 170.399C52.6005 170.499 52.7005 170.599 52.6005 170.699C52.6005 170.599 52.5005 170.699 52.4005 170.699Z" fill="#0D1B44"/>
<path d="M53.5004 164.799C53.5004 164.799 56.3004 165.299 58.0004 166.299C59.7004 167.399 60.5004 169.599 60.5004 169.599C60.5004 169.599 57.4004 172.399 55.6004 171.999C53.5004 171.499 54.2004 171.099 54.2004 171.099L57.4004 169.799C57.4004 169.799 57.8004 168.999 55.4004 168.699C53.1004 168.399 52.4004 168.399 52.4004 168.399L53.5004 164.799Z" fill="white"/>
<path d="M56.0002 172.299C55.9002 172.299 55.7002 172.299 55.6002 172.299C54.5002 172.099 54.0002 171.799 53.9002 171.399C53.9002 171.199 54.0002 170.999 54.1002 170.899L57.2002 169.599C57.2002 169.599 57.2002 169.599 57.2002 169.499C57.1002 169.399 56.8002 169.099 55.5002 168.899C53.2002 168.599 52.6002 168.599 52.6002 168.599C52.5002 168.599 52.4002 168.599 52.4002 168.499C52.3002 168.399 52.3002 168.399 52.4002 168.299L53.5002 164.599C53.5002 164.499 53.7002 164.399 53.8002 164.399C53.9002 164.399 56.7002 164.899 58.4002 165.999C60.1002 167.099 61.0002 169.299 61.0002 169.399C61.0002 169.499 61.0002 169.599 60.9002 169.699C60.6002 169.899 57.9002 172.299 56.0002 172.299ZM54.4002 171.399C54.5002 171.499 54.8002 171.699 55.7002 171.899C57.0002 172.199 59.3002 170.499 60.2002 169.699C60.0002 169.199 59.2002 167.599 57.9002 166.699C56.5002 165.799 54.4002 165.399 53.7002 165.199L52.8002 168.399C53.2002 168.399 54.0002 168.499 55.5002 168.699C56.7002 168.799 57.4002 169.099 57.6002 169.599C57.7002 169.799 57.7002 169.999 57.6002 170.199C57.6002 170.299 57.5002 170.299 57.5002 170.299L54.4002 171.399Z" fill="#363637"/>
<path d="M58.9004 217.599L61.8004 221.999L74.8004 215.399L65.2004 212.899L58.9004 217.599Z" fill="#363637"/>
<path d="M4.20001 207L0 210.4L9.89999 222.1L10.3 213.4L4.20001 207Z" fill="#363637"/>
<path d="M60.2004 214.699C60.1004 214.699 60.0004 214.699 60.0004 214.599C60.0004 214.499 57.1004 209.399 55.7004 206.199C54.3004 203.099 51.5004 199.099 51.5004 199.099C51.5004 198.999 51.4004 198.999 51.5004 198.899L51.8004 196.899L50.2004 196.999C50.1004 196.999 50.0004 196.999 50.0004 196.899C50.0004 196.799 50.0004 196.699 50.0004 196.599L51.4004 194.799L49.8004 194.899C49.7004 194.899 49.6004 194.899 49.6004 194.799C49.5004 194.599 35.9004 177.899 34.7004 176.399C33.4004 174.899 33.0004 171.699 32.9004 171.599C32.9004 171.499 33.0004 171.299 33.1004 171.299C33.2004 171.299 33.4004 171.399 33.4004 171.499C33.4004 171.499 33.8004 174.599 35.0004 175.999C36.2004 177.399 48.7004 192.899 49.8004 194.299L51.8004 194.099C51.9004 194.099 52.0004 194.099 52.0004 194.199C52.0004 194.299 52.0004 194.399 52.0004 194.499L50.6004 196.299L52.0004 196.199C52.1004 196.199 52.1004 196.199 52.2004 196.299C52.3004 196.399 52.3004 196.399 52.3004 196.499L52.0004 198.699C52.4004 199.299 54.9004 202.899 56.2004 205.799C57.6004 208.999 60.5004 214.099 60.5004 214.199C60.6004 214.299 60.5004 214.499 60.4004 214.499C60.2004 214.599 60.2004 214.599 60.2004 214.699Z" fill="#0D1B44"/>
<path d="M57.9996 216.599C57.8996 216.599 57.8996 216.599 57.7996 216.499C57.6996 216.399 57.6996 216.199 57.7996 216.099L64.1996 210.999C64.2996 210.899 64.4996 210.899 64.5996 210.999C64.6996 211.099 64.6996 211.299 64.5996 211.399L58.1996 216.499C58.0996 216.499 58.0996 216.599 57.9996 216.599Z" fill="white"/>
<path d="M11.7 211.4C11.6 211.4 11.6 211.4 11.5 211.3L5.7 205.6C5.6 205.5 5.6 205.3 5.7 205.2C5.8 205.1 5.99999 205.1 6.09999 205.2L11.9 210.9C12 211 12 211.2 11.9 211.3C11.8 211.4 11.8 211.4 11.7 211.4Z" fill="white"/>
<path d="M7.60021 206.899C7.50021 206.899 7.5002 206.899 7.4002 206.799C7.3002 206.699 7.3002 206.499 7.4002 206.399L19.5002 195.199L19.6002 195.099L22.3002 194.899L20.9002 193.199C20.8002 193.099 20.8002 192.999 20.9002 192.899C20.9002 192.799 21.0002 192.799 21.1002 192.799H23.3002L22.4002 190.699C22.4002 190.599 22.4002 190.599 22.4002 190.499C22.4002 190.399 22.5002 190.399 22.5002 190.399C22.5002 190.399 24.1002 189.699 25.9002 186.699C27.8002 183.499 31.0002 177.899 31.1002 177.799C31.2002 177.699 31.3002 177.599 31.4002 177.699C31.5002 177.799 31.6002 177.899 31.5002 177.999C31.5002 178.099 28.2002 183.699 26.3002 186.899C24.8002 189.499 23.4002 190.399 22.8002 190.699L23.7002 192.999C23.7002 193.099 23.7002 193.199 23.7002 193.199C23.7002 193.299 23.6002 193.299 23.5002 193.299H21.4002L22.8002 194.899C22.9002 194.999 22.9002 195.099 22.8002 195.199C22.8002 195.299 22.7002 195.299 22.6002 195.399L19.5002 195.699L7.5002 206.799C7.8002 206.899 7.70021 206.899 7.60021 206.899Z" fill="#0D1B44"/>
<path d="M50.0996 169.699C49.8996 169.599 49.7996 169.499 49.8996 169.399L51.8996 162.899C51.8996 162.799 52.0996 162.699 52.1996 162.699C52.2996 162.699 52.3996 162.899 52.3996 162.999L50.3996 169.499C50.3996 169.699 50.2996 169.699 50.0996 169.699Z" fill="#0D1B44"/>
<path d="M82.8998 215.999C80.3998 211.499 81.8998 205.899 86.1998 203.499C90.4998 201.099 95.9998 202.899 98.4998 207.399C101 211.899 99.4998 217.499 95.1998 219.899C90.7998 222.299 85.2998 220.499 82.8998 215.999Z" fill="#363637"/>
<path d="M95.2995 210.499C94.5995 207.899 91.9996 206.299 89.4996 206.899C86.9996 207.599 85.4996 210.299 86.1996 212.899C86.8996 215.499 89.4996 217.099 91.9996 216.499C94.4996 215.899 95.9995 213.199 95.2995 210.499Z" fill="#E1DCDC"/>
<path d="M90.8003 216.999C89.9003 216.999 89.0003 216.799 88.3003 216.299C87.1003 215.599 86.3003 214.499 85.9003 213.099C85.2003 210.299 86.7003 207.499 89.3003 206.799C90.6003 206.499 91.9003 206.699 93.1003 207.399C94.3003 208.099 95.1003 209.199 95.5003 210.599C95.9003 211.899 95.7003 213.299 95.1003 214.499C94.5003 215.699 93.4003 216.499 92.1003 216.899C91.7003 216.899 91.3003 216.999 90.8003 216.999ZM90.6003 207.099C90.2003 207.099 89.9003 207.099 89.5003 207.199C87.1003 207.799 85.7003 210.399 86.4003 212.899C86.7003 214.099 87.5003 215.099 88.5003 215.799C89.5003 216.399 90.7003 216.599 91.9003 216.299C93.0003 215.999 94.0003 215.199 94.6003 214.199C95.2003 213.099 95.3003 211.899 95.0003 210.599C94.7003 209.399 93.9003 208.399 92.9003 207.699C92.2003 207.299 91.4003 207.099 90.6003 207.099Z" fill="#E9F3FF" stroke="#0D1B44" stroke-width="0.5" stroke-miterlimit="10"/>
<path d="M85.2998 204.899C85.0998 204.899 84.9998 204.799 84.8998 204.699L63.1998 170.699L60.1998 169.599C59.8998 169.499 59.7998 169.199 59.8998 168.999C59.9998 168.699 60.2998 168.599 60.4998 168.699L63.6998 169.799C63.7998 169.799 63.8998 169.899 63.9998 169.999L85.7998 204.099C85.8998 204.299 85.8998 204.599 85.5998 204.799C85.4998 204.899 85.3998 204.899 85.2998 204.899Z" fill="#363637"/>
<path d="M95.6998 207.8C95.5998 207.8 95.3998 207.7 95.2998 207.6L55.6998 160.1C55.4998 159.9 55.5998 159.6 55.7998 159.4C55.9998 159.2 56.2998 159.3 56.4998 159.5L96.0998 207C96.2998 207.2 96.1998 207.5 95.9998 207.7C95.8998 207.8 95.7998 207.8 95.6998 207.8Z" fill="#363637"/>
<path d="M70.2 180.899C70 180.899 69.8 180.799 69.8 180.599C69.7 180.399 69.8 180.099 70 179.899L71.8 178.999C72 178.899 72.3 178.999 72.5 179.199C72.6 179.399 72.5 179.699 72.3 179.899L70.5 180.899C70.3 180.899 70.2 180.899 70.2 180.899Z" fill="#363637"/>
<path d="M72.0002 184.3C71.8002 184.3 71.7002 184.2 71.6002 184.1C71.4002 183.9 71.5002 183.6 71.7002 183.4L74.6002 181.4C74.8002 181.2 75.1002 181.3 75.3002 181.5C75.5002 181.7 75.4002 182 75.2002 182.2L72.3002 184.2C72.2002 184.3 72.1002 184.3 72.0002 184.3Z" fill="#363637"/>
<path d="M54.2998 170.099C54.2998 169.399 54.8998 168.799 55.5998 168.799C56.2998 168.799 56.7998 169.399 56.7998 170.199C56.7998 170.899 56.1998 171.499 55.4998 171.499C54.7998 171.499 54.2998 170.799 54.2998 170.099Z" fill="#363637"/>
<path d="M56.5 157.4L75 142.5L86.7 157.1L68.2 172L56.5 157.4Z" fill="#0D1B44"/>
<path d="M68.7002 171.999L87.2002 157.099L99.3002 172.299L80.3002 186.499L68.7002 171.999Z" fill="#0D1B44"/>
<path d="M80.5996 186.899L102.8 170.199L113.6 184.499L92.2996 200.299L80.5996 186.899Z" fill="#0D1B44"/>
<path d="M93 200.599L115.2 183.899L126 198.199L104.7 213.999L93 200.599Z" fill="#0D1B44"/>
<path d="M104.2 217C104.1 217 103.9 217 103.8 216.9L98.1002 211.2C97.9002 211 97.9002 210.7 98.1002 210.5C98.3002 210.3 98.6002 210.3 98.8002 210.5L104.2 215.9L125 200.4C125.2 200.2 125.5 200.3 125.7 200.5C125.9 200.7 125.8 201 125.6 201.2L104.5 216.9C104.4 216.9 104.3 217 104.2 217Z" fill="#363637"/>
<path d="M58.3004 159.699C58.2004 159.699 58.2004 159.699 58.1004 159.599C58.0004 159.499 58.0004 159.299 58.1004 159.199L75.8004 145.099C75.9004 144.999 76.1004 144.999 76.2004 145.099C76.3004 145.199 76.3004 145.399 76.2004 145.499L58.5004 159.599C58.4004 159.699 58.4004 159.699 58.3004 159.699Z" fill="white"/>
<path d="M70.6998 174.299C70.5998 174.299 70.5998 174.299 70.4998 174.199C70.3998 174.099 70.3998 173.899 70.4998 173.799L88.1998 159.099C88.2998 158.999 88.4998 158.999 88.5998 159.099C88.6998 159.199 88.6998 159.399 88.5998 159.499L70.8998 174.199C70.8998 174.299 70.7998 174.299 70.6998 174.299Z" fill="white"/>
<path d="M82.7003 188.999C82.6003 188.999 82.5003 188.999 82.5003 188.899C82.4003 188.799 82.4003 188.599 82.6003 188.499L104.2 172.699C104.3 172.599 104.5 172.599 104.5 172.799C104.6 172.899 104.6 173.099 104.4 173.199L82.7003 188.999Z" fill="white"/>
<path d="M95.2003 202.999C95.1003 202.999 95.0003 202.999 95.0003 202.899C94.9003 202.799 94.9003 202.599 95.1003 202.499L115.8 186.899C115.9 186.799 116.1 186.799 116.2 186.899C116.3 186.999 116.3 187.199 116.1 187.299L95.4002 202.899C95.4002 202.999 95.3003 202.999 95.2003 202.999Z" fill="white"/>
<path d="M37.1996 186.799C37.0996 186.799 36.9996 186.799 36.9996 186.699C36.9996 186.699 33.8996 182.399 32.7996 180.599C31.6996 178.799 29.1996 174.499 29.1996 174.499C29.0996 174.399 29.1996 174.199 29.2996 174.199C29.3996 174.099 29.5996 174.199 29.5996 174.299C29.5996 174.299 32.0996 178.599 33.1996 180.399C34.2996 182.199 37.3996 186.399 37.3996 186.499C37.4996 186.599 37.4996 186.799 37.1996 186.799C37.2996 186.799 37.2996 186.799 37.1996 186.799Z" fill="#0D1B44"/>
<path d="M57.8 227.8C88.0652 227.8 112.6 226.681 112.6 225.3C112.6 223.919 88.0652 222.8 57.8 222.8C27.5348 222.8 3 223.919 3 225.3C3 226.681 27.5348 227.8 57.8 227.8Z" fill="#E1DCDC"/>
<path d="M281.1 227.8C357.37 227.8 419.2 225.561 419.2 222.8C419.2 220.038 357.37 217.8 281.1 217.8C204.829 217.8 143 220.038 143 222.8C143 225.561 204.829 227.8 281.1 227.8Z" fill="#E1DCDC"/>
<path d="M137.302 199.7L135.602 198.6C129.502 194.6 125.902 187.8 126.002 180.6L126.302 155.2C126.702 150.4 127.602 145.7 129.102 141.1L133.902 108.3C134.902 101.2 140.802 95.7998 148.002 95.3998C175.702 93.7998 242.002 92.7998 259.502 92.7998L262.402 92.8998H325.702C333.002 92.8998 340.202 94.5998 347.002 97.9998C356.402 103.8 371.302 115.1 393.802 134.3H401.602C418.802 138.5 424.902 150.3 427.502 164.6C432.402 167.9 435.602 175.1 435.702 183.3V192.9C435.702 196.8 432.502 200 428.602 200C428.302 200 428.002 200 427.702 199.9C427.502 200 427.202 200 427.002 200H426.302H425.402H428.002V205.8H424.302C423.402 209 422.002 211.8 420.302 214.1C419.802 214.8 419.302 215.4 418.802 215.9C418.802 216 418.702 216 418.602 216.1C418.402 216.3 418.302 216.4 418.102 216.6C418.002 216.7 417.802 216.8 417.702 216.9C417.602 217 417.502 217.1 417.402 217.2C415.002 219.2 412.102 220.4 409.102 220.4H397.702C390.702 220.4 384.802 214.3 382.402 205.7H346.002C345.902 205.7 345.702 205.7 345.502 205.7H343.202H338.302H336.502C334.102 214.2 328.202 220.3 321.302 220.3H310.602C310.302 220.3 310.102 220.3 309.802 220.3C309.102 220.3 308.502 220.2 307.902 220.1H306.802C301.202 218.6 296.202 212.9 294.202 205.6H291.202H271.602C271.202 207 270.802 208.4 270.202 209.6C267.302 216 262.202 220.3 256.402 220.3H245.002C238.002 220.3 232.102 214.2 229.702 205.6H195.502C195.302 205.6 195.202 205.6 195.102 205.6H183.802C181.402 214.1 175.502 220.2 168.602 220.2H157.902C157.602 220.2 157.402 220.2 157.102 220.2C149.102 220.2 142.402 212 141.002 201.2L137.302 199.7ZM137.302 199.7V199.6" stroke="#363637" stroke-width="1.5" stroke-miterlimit="10"/>
<mask id="mask0_2505_100102" style="mask-type:luminance" maskUnits="userSpaceOnUse" x="126" y="93" width="311" height="129">
<path d="M436.002 93.7998H126.202V221.2H436.002V93.7998Z" fill="white"/>
</mask>
<g mask="url(#mask0_2505_100102)">
<path d="M318.902 213.5C320.402 210.3 319.002 205.6 316.502 205.5L312.602 205.4C309.902 208.2 308.102 211.8 307.602 216L307.002 221.1H309.102C312.902 221.1 316.602 218.3 318.902 213.5Z" fill="#F15067"/>
</g>
<mask id="mask1_2505_100102" style="mask-type:luminance" maskUnits="userSpaceOnUse" x="126" y="93" width="311" height="129">
<path d="M436.002 93.7998H126.202V221.2H436.002V93.7998Z" fill="white"/>
</mask>
<g mask="url(#mask1_2505_100102)">
<path d="M139.502 147.6L413.302 142.2L396.202 137.1C384.102 126.7 372.402 117.1 360.902 108.5C357.502 105.8 350.202 100.7 347.102 98.9999C342.602 96.3999 339.102 97.0999 334.302 97.0999H199.502C175.202 96.9999 139.502 147.6 139.502 147.6ZM332.202 135.2C329.902 135.2 327.602 135.2 325.302 135.1L316.502 109.6C315.502 106.7 317.202 103.4 319.802 103.4H332.402C340.902 103.4 349.302 106.4 356.502 112L374.902 126.5C379.102 129.8 380.002 135 376.402 135L332.202 135.2Z" fill="#3A5C91"/>
</g>
<mask id="mask2_2505_100102" style="mask-type:luminance" maskUnits="userSpaceOnUse" x="126" y="93" width="311" height="129">
<path d="M436.002 93.7998H126.202V221.2H436.002V93.7998Z" fill="white"/>
</mask>
<g mask="url(#mask2_2505_100102)">
<path d="M243.802 146.3H265.902L261.702 123C261.002 119.3 258.402 116.7 255.302 116.7H250.602C246.802 116.7 243.802 120.5 243.802 125.1V146.3Z" fill="#0D1B44"/>
</g>
<mask id="mask3_2505_100102" style="mask-type:luminance" maskUnits="userSpaceOnUse" x="126" y="93" width="311" height="129">
<path d="M436.002 93.7998H126.202V221.2H436.002V93.7998Z" fill="white"/>
</mask>
<g mask="url(#mask3_2505_100102)">
<path d="M294.603 146.3H316.703L312.503 123C311.803 119.3 309.203 116.7 306.103 116.7H301.403C297.603 116.7 294.603 120.5 294.603 125.1V146.3Z" fill="#0D1B44"/>
</g>
<mask id="mask4_2505_100102" style="mask-type:luminance" maskUnits="userSpaceOnUse" x="126" y="93" width="311" height="129">
<path d="M436.002 93.7998H126.202V221.2H436.002V93.7998Z" fill="white"/>
</mask>
<g mask="url(#mask4_2505_100102)">
<path d="M348.502 124.1C342.202 124.1 335.202 131.1 332.902 139.7C330.502 148.3 333.702 155.3 340.002 155.3C346.302 155.3 353.302 148.3 355.602 139.7C357.902 131.1 354.802 124.1 348.502 124.1ZM353.002 138.7C351.002 145.9 345.002 152 340.002 152C338.202 152 336.902 151.3 336.002 149.8C334.702 147.7 334.502 144.3 335.502 140.6C337.502 133.4 343.502 127.3 348.502 127.3C350.302 127.3 351.602 128 352.502 129.5C353.802 131.6 354.002 135.1 353.002 138.7Z" fill="#363637"/>
</g>
<mask id="mask5_2505_100102" style="mask-type:luminance" maskUnits="userSpaceOnUse" x="126" y="93" width="311" height="129">
<path d="M436.002 93.7998H126.202V221.2H436.002V93.7998Z" fill="white"/>
</mask>
<g mask="url(#mask5_2505_100102)">
<path d="M296.302 130H369.702C376.602 130 383.402 132.4 389.202 137L397.402 143.5H296.302V130Z" fill="#3A5C91"/>
</g>
<mask id="mask6_2505_100102" style="mask-type:luminance" maskUnits="userSpaceOnUse" x="126" y="93" width="311" height="129">
<path d="M436.002 93.7998H126.202V221.2H436.002V93.7998Z" fill="white"/>
</mask>
<g mask="url(#mask6_2505_100102)">
<path d="M272.002 98.8998L261.302 93.7998H325.802C333.202 93.7998 340.402 95.4998 347.102 98.8998H272.002Z" fill="#6EA5F4"/>
</g>
<mask id="mask7_2505_100102" style="mask-type:luminance" maskUnits="userSpaceOnUse" x="126" y="93" width="311" height="129">
<path d="M436.002 93.7998H126.202V221.2H436.002V93.7998Z" fill="white"/>
</mask>
<g mask="url(#mask7_2505_100102)">
<path d="M256.602 175C265.602 175 273.002 185.4 273.002 198.1C273.002 210.8 265.702 221.2 256.602 221.2H245.202V175H256.602Z" fill="#0D1B44"/>
</g>
<mask id="mask8_2505_100102" style="mask-type:luminance" maskUnits="userSpaceOnUse" x="126" y="93" width="311" height="129">
<path d="M436.002 93.7998H126.202V221.2H436.002V93.7998Z" fill="white"/>
</mask>
<g mask="url(#mask8_2505_100102)">
<path d="M409.302 175C418.402 175 425.702 185.4 425.702 198.1C425.702 210.8 418.402 221.2 409.302 221.2H397.902V175H409.302Z" fill="#363637"/>
</g>
<mask id="mask9_2505_100102" style="mask-type:luminance" maskUnits="userSpaceOnUse" x="126" y="93" width="311" height="129">
<path d="M436.002 93.7998H126.202V221.2H436.002V93.7998Z" fill="white"/>
</mask>
<g mask="url(#mask9_2505_100102)">
<path d="M423.102 210.5C420.202 216.9 415.102 221.2 409.302 221.2H397.902V210.5H423.102Z" fill="#3A5C91"/>
</g>
<mask id="mask10_2505_100102" style="mask-type:luminance" maskUnits="userSpaceOnUse" x="126" y="93" width="311" height="129">
<path d="M436.002 93.7998H126.202V221.2H436.002V93.7998Z" fill="white"/>
</mask>
<g mask="url(#mask10_2505_100102)">
<path d="M397.902 221.2C406.902 221.2 414.302 210.9 414.302 198.1C414.302 185.3 407.002 175 397.902 175C388.802 175 381.502 185.3 381.502 198.1C381.502 210.9 388.802 221.2 397.902 221.2Z" fill="#363637"/>
</g>
<mask id="mask11_2505_100102" style="mask-type:luminance" maskUnits="userSpaceOnUse" x="126" y="93" width="311" height="129">
<path d="M436.002 93.7998H126.202V221.2H436.002V93.7998Z" fill="white"/>
</mask>
<g mask="url(#mask11_2505_100102)">
<path d="M270.402 210.5C267.502 216.9 262.402 221.2 256.602 221.2H245.202V210.5H270.402Z" fill="#3A5C91"/>
</g>
<mask id="mask12_2505_100102" style="mask-type:luminance" maskUnits="userSpaceOnUse" x="126" y="93" width="311" height="129">
<path d="M436.002 93.7998H126.202V221.2H436.002V93.7998Z" fill="white"/>
</mask>
<g mask="url(#mask12_2505_100102)">
<path d="M228.802 198.1C228.802 210.9 236.102 221.2 245.202 221.2C254.302 221.2 261.602 210.8 261.602 198.1C261.602 185.4 254.302 175 245.202 175C236.102 175 228.802 185.4 228.802 198.1Z" fill="#0D1B44"/>
</g>
<mask id="mask13_2505_100102" style="mask-type:luminance" maskUnits="userSpaceOnUse" x="126" y="93" width="311" height="129">
<path d="M436.002 93.7998H126.202V221.2H436.002V93.7998Z" fill="white"/>
</mask>
<g mask="url(#mask13_2505_100102)">
<path d="M426.502 200.7H304.402H247.702L241.402 198.9C236.202 197.4 232.702 190 233.302 181.9L234.602 164.7C235.402 154.8 240.802 147.4 247.302 147.4H334.802C352.402 147.4 402.602 151.8 414.002 160.4C419.902 164.8 424.602 171.7 426.502 179.5L430.702 196.3C431.302 198.5 429.602 200.7 427.302 200.7H426.502Z" fill="#6EA5F4"/>
</g>
<mask id="mask14_2505_100102" style="mask-type:luminance" maskUnits="userSpaceOnUse" x="126" y="93" width="311" height="129">
<path d="M436.002 93.7998H126.202V221.2H436.002V93.7998Z" fill="white"/>
</mask>
<g mask="url(#mask14_2505_100102)">
<path d="M435.902 184.2C435.802 176 432.602 168.8 427.702 165.5C425.102 151.2 419.002 139.4 401.802 135.2H287.402V158.6L421.402 193.9C422.902 198 425.802 200.7 428.902 200.7C432.802 200.7 436.002 197.5 436.002 193.6L435.902 184.2Z" fill="#6EA5F4"/>
</g>
<mask id="mask15_2505_100102" style="mask-type:luminance" maskUnits="userSpaceOnUse" x="126" y="93" width="311" height="129">
<path d="M436.002 93.7998H126.202V221.2H436.002V93.7998Z" fill="white"/>
</mask>
<g mask="url(#mask15_2505_100102)">
<path d="M138.102 165.6H324.002L343.402 206.6H152.002L137.502 200.8C133.702 188.7 133.702 177 138.102 165.6Z" fill="#0D1B44"/>
</g>
<mask id="mask16_2505_100102" style="mask-type:luminance" maskUnits="userSpaceOnUse" x="126" y="93" width="311" height="129">
<path d="M436.002 93.7998H126.202V221.2H436.002V93.7998Z" fill="white"/>
</mask>
<g mask="url(#mask16_2505_100102)">
<path d="M321.402 175C330.402 175 337.802 185.4 337.802 198.1C337.802 210.8 330.502 221.2 321.402 221.2H310.002V175H321.402Z" fill="#363637"/>
</g>
<mask id="mask17_2505_100102" style="mask-type:luminance" maskUnits="userSpaceOnUse" x="126" y="93" width="311" height="129">
<path d="M436.002 93.7998H126.202V221.2H436.002V93.7998Z" fill="white"/>
</mask>
<g mask="url(#mask17_2505_100102)">
<path d="M293.603 198.1C293.603 210.9 300.903 221.2 310.003 221.2C319.103 221.2 326.403 210.8 326.403 198.1C326.403 185.4 319.103 175 310.003 175C300.903 175 293.603 185.4 293.603 198.1Z" fill="#F6F7F9"/>
</g>
<mask id="mask18_2505_100102" style="mask-type:luminance" maskUnits="userSpaceOnUse" x="126" y="93" width="311" height="129">
<path d="M436.002 93.7998H126.202V221.2H436.002V93.7998Z" fill="white"/>
</mask>
<g mask="url(#mask18_2505_100102)">
<path d="M168.702 175C177.802 175 185.102 185.4 185.102 198.1C185.102 210.8 177.802 221.2 168.702 221.2H157.302V175H168.702Z" fill="#0D1B44"/>
</g>
<mask id="mask19_2505_100102" style="mask-type:luminance" maskUnits="userSpaceOnUse" x="126" y="93" width="311" height="129">
<path d="M436.002 93.7998H126.202V221.2H436.002V93.7998Z" fill="white"/>
</mask>
<g mask="url(#mask19_2505_100102)">
<path d="M140.902 198.1C140.902 210.9 148.202 221.2 157.302 221.2C166.402 221.2 173.702 210.8 173.702 198.1C173.702 185.4 166.402 175 157.302 175C148.202 175 140.902 185.4 140.902 198.1Z" fill="#F6F7F9"/>
</g>
<mask id="mask20_2505_100102" style="mask-type:luminance" maskUnits="userSpaceOnUse" x="126" y="93" width="311" height="129">
<path d="M436.002 93.7998H126.202V221.2H436.002V93.7998Z" fill="white"/>
</mask>
<g mask="url(#mask20_2505_100102)">
<path d="M338.502 206.6H415.802V200.8H338.502V206.6Z" fill="#363637"/>
</g>
<mask id="mask21_2505_100102" style="mask-type:luminance" maskUnits="userSpaceOnUse" x="126" y="93" width="311" height="129">
<path d="M436.002 93.7998H126.202V221.2H436.002V93.7998Z" fill="white"/>
</mask>
<g mask="url(#mask21_2505_100102)">
<path d="M346.302 206.6H428.302V200.8H340.602V200.9C340.502 204 343.102 206.6 346.302 206.6Z" fill="#363637"/>
</g>
<mask id="mask22_2505_100102" style="mask-type:luminance" maskUnits="userSpaceOnUse" x="126" y="93" width="311" height="129">
<path d="M436.002 93.7998H126.202V221.2H436.002V93.7998Z" fill="white"/>
</mask>
<g mask="url(#mask22_2505_100102)">
<path d="M415.702 199.7C416.002 196.6 413.602 193.9 410.602 193.9H371.602C368.502 193.9 366.202 197 367.002 200.1L367.202 200.7H415.602L415.702 199.7Z" fill="#3A5C91"/>
</g>
<mask id="mask23_2505_100102" style="mask-type:luminance" maskUnits="userSpaceOnUse" x="126" y="93" width="311" height="129">
<path d="M436.002 93.7998H126.202V221.2H436.002V93.7998Z" fill="white"/>
</mask>
<g mask="url(#mask23_2505_100102)">
<path d="M385.002 191.6H407.502C408.902 191.6 410.002 190.5 410.002 189.1V185.8C410.002 184.4 408.902 183.3 407.502 183.3H385.002C383.602 183.3 382.502 184.4 382.502 185.8V189.1C382.402 190.4 383.602 191.6 385.002 191.6Z" fill="white" stroke="#3A5C91" stroke-miterlimit="10"/>
</g>
<mask id="mask24_2505_100102" style="mask-type:luminance" maskUnits="userSpaceOnUse" x="126" y="93" width="311" height="129">
<path d="M436.002 93.7998H126.202V221.2H436.002V93.7998Z" fill="white"/>
</mask>
<g mask="url(#mask24_2505_100102)">
<path d="M352.102 184.1C352.002 174.9 345.902 166.9 337.002 164.4L336.602 164.3C330.402 147.6 322.702 140.5 306.402 137.7L300.002 129.1L284.402 107.4C276.902 96.9997 267.502 94.3997 262.602 93.7997L259.702 93.6997C242.202 93.6997 175.902 94.6997 148.202 96.2997C141.002 96.6997 135.102 102.1 134.102 109.2L129.302 142C127.802 146.6 126.902 151.3 126.502 156.1L126.202 181.5C126.102 188.7 129.702 195.5 135.802 199.5L137.502 200.6C137.402 199.7 137.402 198.9 137.402 198C137.402 183.3 146.302 171.2 157.302 171.2C166.802 171.2 174.702 180.1 176.702 192C177.502 197 181.802 200.5 186.602 200.5H290.102C290.002 199.6 290.002 198.8 290.002 197.9C290.002 183.2 298.902 171.1 309.902 171.1C318.902 171.1 326.502 179.2 329.002 190.2C330.402 196.2 335.602 200.5 341.602 200.5H352.302L352.102 184.1ZM235.402 105C235.902 101.3 239.002 98.5997 242.702 98.5997C256.302 98.6997 267.202 99.5997 270.302 101.4C274.102 103.5 277.402 106.6 280.102 110.6L290.602 126.1C293.002 129.6 291.102 135.2 287.502 135.2H231.902L235.402 105Z" fill="#2482F9"/>
</g>
<mask id="mask25_2505_100102" style="mask-type:luminance" maskUnits="userSpaceOnUse" x="126" y="93" width="311" height="129">
<path d="M436.002 93.7998H126.202V221.2H436.002V93.7998Z" fill="white"/>
</mask>
<g mask="url(#mask25_2505_100102)">
<path d="M219.902 147.6C219.902 145.8 218.502 144.3 216.802 144.3H209.902C209.002 144.3 208.302 145 208.302 145.9C208.302 146.8 209.002 147.5 209.902 147.5L219.902 147.6Z" fill="white" stroke="#636262" stroke-width="0.75" stroke-miterlimit="10"/>
</g>
<mask id="mask26_2505_100102" style="mask-type:luminance" maskUnits="userSpaceOnUse" x="126" y="93" width="311" height="129">
<path d="M436.002 93.7998H126.202V221.2H436.002V93.7998Z" fill="white"/>
</mask>
<g mask="url(#mask26_2505_100102)">
<path d="M216.802 150.9H214.502C212.802 150.9 211.402 149.5 211.402 147.8V147.5H219.902V147.8C219.802 149.5 218.502 150.9 216.802 150.9Z" fill="#3A5C91"/>
</g>
<mask id="mask27_2505_100102" style="mask-type:luminance" maskUnits="userSpaceOnUse" x="126" y="93" width="311" height="129">
<path d="M436.002 93.7998H126.202V221.2H436.002V93.7998Z" fill="white"/>
</mask>
<g mask="url(#mask27_2505_100102)">
<path d="M240.002 147.6C240.002 145.8 238.602 144.3 236.902 144.3H229.902C229.002 144.3 228.302 145 228.302 145.9C228.302 146.8 229.002 147.5 229.902 147.5L240.002 147.6Z" fill="white" stroke="#636262" stroke-width="0.75" stroke-miterlimit="10"/>
</g>
<mask id="mask28_2505_100102" style="mask-type:luminance" maskUnits="userSpaceOnUse" x="126" y="93" width="311" height="129">
<path d="M436.002 93.7998H126.202V221.2H436.002V93.7998Z" fill="white"/>
</mask>
<g mask="url(#mask28_2505_100102)">
<path d="M236.902 150.9H234.602C232.902 150.9 231.502 149.5 231.502 147.8V147.5H240.002V147.8C240.002 149.5 238.602 150.9 236.902 150.9Z" fill="#3A5C91"/>
</g>
<mask id="mask29_2505_100102" style="mask-type:luminance" maskUnits="userSpaceOnUse" x="126" y="93" width="311" height="129">
<path d="M436.002 93.7998H126.202V221.2H436.002V93.7998Z" fill="white"/>
</mask>
<g mask="url(#mask29_2505_100102)">
<path d="M320.903 201.9C319.503 210.4 313.403 215.6 307.403 213.6C301.403 211.6 297.703 203 299.103 194.6C300.503 186.1 306.603 180.9 312.603 182.9C318.603 184.8 322.303 193.4 320.903 201.9Z" fill="#E9F3FF" stroke="#0D1B44" stroke-width="0.5" stroke-miterlimit="10"/>
</g>
<mask id="mask30_2505_100102" style="mask-type:luminance" maskUnits="userSpaceOnUse" x="126" y="93" width="311" height="129">
<path d="M436.002 93.7998H126.202V221.2H436.002V93.7998Z" fill="white"/>
</mask>
<g mask="url(#mask30_2505_100102)">
<path d="M307.202 207C303.702 205.8 301.502 200.8 302.402 195.9C303.202 191 306.802 187.9 310.302 189.1C313.802 190.3 316.002 195.3 315.102 200.2C314.302 205.1 310.702 208.2 307.202 207Z" fill="#D2DAEF" stroke="#0D1B44" stroke-width="0.5" stroke-miterlimit="10"/>
</g>
<mask id="mask31_2505_100102" style="mask-type:luminance" maskUnits="userSpaceOnUse" x="126" y="93" width="311" height="129">
<path d="M436.002 93.7998H126.202V221.2H436.002V93.7998Z" fill="white"/>
</mask>
<g mask="url(#mask31_2505_100102)">
<path d="M307.602 201.3C306.302 200.9 305.502 199.1 305.902 197.3C306.302 195.5 307.502 194.4 308.702 194.8C310.002 195.2 310.802 197 310.402 198.8C310.102 200.6 308.902 201.7 307.602 201.3Z" fill="#0D1B44"/>
</g>
<mask id="mask32_2505_100102" style="mask-type:luminance" maskUnits="userSpaceOnUse" x="126" y="93" width="311" height="129">
<path d="M436.002 93.7998H126.202V221.2H436.002V93.7998Z" fill="white"/>
</mask>
<g mask="url(#mask32_2505_100102)">
<path d="M168.202 194.5C166.802 186 160.702 180.8 154.702 182.8C148.702 184.8 145.002 193.4 146.402 201.8C147.802 210.3 153.902 215.5 159.902 213.5C165.902 211.5 169.602 203 168.202 194.5Z" fill="#E9F3FF" stroke="#0D1B44" stroke-width="0.5" stroke-miterlimit="10"/>
</g>
<mask id="mask33_2505_100102" style="mask-type:luminance" maskUnits="userSpaceOnUse" x="126" y="93" width="311" height="129">
<path d="M436.002 93.7998H126.202V221.2H436.002V93.7998Z" fill="white"/>
</mask>
<g mask="url(#mask33_2505_100102)">
<path d="M162.402 196.2C163.202 201.1 161.102 206.1 157.602 207.3C154.102 208.5 150.502 205.4 149.702 200.5C148.902 195.6 151.002 190.6 154.502 189.4C158.002 188.2 161.602 191.2 162.402 196.2Z" fill="#D2DAEF" stroke="#0D1B44" stroke-width="0.5" stroke-miterlimit="10"/>
</g>
<mask id="mask34_2505_100102" style="mask-type:luminance" maskUnits="userSpaceOnUse" x="126" y="93" width="311" height="129">
<path d="M436.002 93.7998H126.202V221.2H436.002V93.7998Z" fill="white"/>
</mask>
<g mask="url(#mask34_2505_100102)">
<path d="M157.702 197.5C158.002 199.3 157.202 201.1 156.002 201.5C154.702 201.9 153.402 200.8 153.202 199C152.902 197.2 153.702 195.4 154.902 195C156.202 194.6 157.402 195.7 157.702 197.5Z" fill="#0D1B44"/>
</g>
<mask id="mask35_2505_100102" style="mask-type:luminance" maskUnits="userSpaceOnUse" x="126" y="93" width="311" height="129">
<path d="M436.002 93.7998H126.202V221.2H436.002V93.7998Z" fill="white"/>
</mask>
<g mask="url(#mask35_2505_100102)">
<path d="M171.003 144.8H137.503C135.803 144.8 135.803 145.4 137.503 145.4H171.003V144.8Z" fill="#3A5C91"/>
</g>
<mask id="mask36_2505_100102" style="mask-type:luminance" maskUnits="userSpaceOnUse" x="126" y="93" width="311" height="129">
<path d="M436.002 93.7998H126.202V221.2H436.002V93.7998Z" fill="white"/>
</mask>
<g mask="url(#mask36_2505_100102)">
<path d="M331.402 163.2L354.602 167.5C356.402 167.8 358.302 166 358.702 163.4L356.802 160.6C353.602 156 349.602 152.8 345.002 151.3L326.602 145.3C324.002 144.4 321.302 148.4 322.102 152.1C323.402 158.1 326.902 162.4 331.402 163.2Z" fill="#2482F9"/>
</g>
<mask id="mask37_2505_100102" style="mask-type:luminance" maskUnits="userSpaceOnUse" x="126" y="93" width="311" height="129">
<path d="M436.002 93.7998H126.202V221.2H436.002V93.7998Z" fill="white"/>
</mask>
<g mask="url(#mask37_2505_100102)">
<path d="M341.103 158.8C345.303 160.2 349.103 163 352.103 167.1L331.303 163.2C327.003 162.4 323.503 158.4 322.103 152.7C322.203 152.7 322.403 152.8 322.603 152.8L341.103 158.8Z" fill="white" stroke="#363637" stroke-width="0.75" stroke-miterlimit="10"/>
</g>
<mask id="mask38_2505_100102" style="mask-type:luminance" maskUnits="userSpaceOnUse" x="126" y="93" width="311" height="129">
<path d="M436.002 93.7998H126.202V221.2H436.002V93.7998Z" fill="white"/>
</mask>
<g mask="url(#mask38_2505_100102)">
<path d="M422.603 150L419.903 151.2C416.703 152.6 414.703 155.7 414.003 160.2L413.603 163.1C415.303 165.9 417.903 167.9 419.403 167.5L427.903 165.2C426.503 159.1 425.003 154 422.603 150Z" fill="#2482F9"/>
</g>
<mask id="mask39_2505_100102" style="mask-type:luminance" maskUnits="userSpaceOnUse" x="126" y="93" width="311" height="129">
<path d="M436.002 93.7998H126.202V221.2H436.002V93.7998Z" fill="white"/>
</mask>
<g mask="url(#mask39_2505_100102)">
<path d="M425.402 156.3L424.102 156.9C420.602 158.6 418.102 161.9 417.002 166.8C417.902 167.3 418.702 167.6 419.302 167.4L427.802 165.1C427.102 162 426.302 159 425.402 156.3Z" fill="white" stroke="#363637" stroke-width="0.75" stroke-miterlimit="10"/>
</g>
<mask id="mask40_2505_100102" style="mask-type:luminance" maskUnits="userSpaceOnUse" x="126" y="93" width="311" height="129">
<path d="M436.002 93.7998H126.202V221.2H436.002V93.7998Z" fill="white"/>
</mask>
<g mask="url(#mask40_2505_100102)">
<path d="M414.102 161.2H357.302L354.702 167.5H418.902L414.102 161.2Z" fill="#363637"/>
</g>
<mask id="mask41_2505_100102" style="mask-type:luminance" maskUnits="userSpaceOnUse" x="126" y="93" width="311" height="129">
<path d="M436.002 93.7998H126.202V221.2H436.002V93.7998Z" fill="white"/>
</mask>
<g mask="url(#mask41_2505_100102)">
<path d="M258.302 131.5C258.802 134 260.802 135.8 263.602 135.8H275.002L274.402 132.4L273.202 125.8C272.602 122.9 270.202 121 267.102 121H260.302C258.902 121 257.502 122.2 257.302 123.6C257.202 124.2 257.202 124.7 257.202 125.2L258.302 131.5Z" fill="#6EA5F4" stroke="#363637" stroke-width="0.75" stroke-miterlimit="10"/>
</g>
<mask id="mask42_2505_100102" style="mask-type:luminance" maskUnits="userSpaceOnUse" x="126" y="93" width="311" height="129">
<path d="M436.002 93.7998H126.202V221.2H436.002V93.7998Z" fill="white"/>
</mask>
<g mask="url(#mask42_2505_100102)">
<path d="M275.002 135.8L275.602 138.9C275.902 140.8 274.202 142.7 272.302 142.7C270.602 142.7 269.302 141.7 269.002 140.1L268.202 135.9L275.002 135.8Z" fill="#3A5C91"/>
</g>
<mask id="mask43_2505_100102" style="mask-type:luminance" maskUnits="userSpaceOnUse" x="126" y="93" width="311" height="129">
<path d="M436.002 93.7998H126.202V221.2H436.002V93.7998Z" fill="white"/>
</mask>
<g mask="url(#mask43_2505_100102)">
<path d="M307.602 154.9H307.302V156.5C307.302 157.9 306.102 159.1 304.702 159.1H298.602L298.502 159.2C297.702 160.5 298.602 162.3 300.202 162.3H307.502C308.902 162.3 310.102 161.1 310.102 159.7V157.5C310.202 156.1 309.002 155 307.602 154.9Z" fill="#3A5C91"/>
</g>
<mask id="mask44_2505_100102" style="mask-type:luminance" maskUnits="userSpaceOnUse" x="126" y="93" width="311" height="129">
<path d="M436.002 93.7998H126.202V221.2H436.002V93.7998Z" fill="white"/>
</mask>
<g mask="url(#mask44_2505_100102)">
<path opacity="0.28" d="M303.603 154.9C302.103 154.9 300.703 155.7 299.903 157L298.603 159.1H304.703C306.103 159.1 307.303 157.9 307.303 156.5V154.9H303.603Z" fill="white"/>
</g>
<mask id="mask45_2505_100102" style="mask-type:luminance" maskUnits="userSpaceOnUse" x="126" y="93" width="311" height="129">
<path d="M436.002 93.7998H126.202V221.2H436.002V93.7998Z" fill="white"/>
</mask>
<g mask="url(#mask45_2505_100102)">
<path d="M224.202 199.7C223.702 199.7 223.202 199.3 223.202 198.7L222.402 146.2C222.302 142.2 223.802 138.5 226.602 135.6C227.002 135.2 227.602 135.2 228.002 135.6C228.402 136 228.402 136.6 228.002 137C225.602 139.5 224.302 142.8 224.402 146.3L225.202 198.8C225.202 199.3 224.702 199.7 224.202 199.7Z" fill="#3A5C91"/>
</g>
<mask id="mask46_2505_100102" style="mask-type:luminance" maskUnits="userSpaceOnUse" x="126" y="93" width="311" height="129">
<path d="M436.002 93.7998H126.202V221.2H436.002V93.7998Z" fill="white"/>
</mask>
<g mask="url(#mask46_2505_100102)">
<path d="M281.302 199.7C280.802 199.7 280.302 199.3 280.302 198.7L279.502 146.2C279.402 142.2 280.902 138.5 283.702 135.6C284.102 135.2 284.702 135.2 285.102 135.6C285.502 136 285.502 136.6 285.102 137C282.702 139.5 281.402 142.8 281.502 146.3L282.302 198.8C282.302 199.3 281.902 199.7 281.302 199.7Z" fill="#3A5C91"/>
</g>
<mask id="mask47_2505_100102" style="mask-type:luminance" maskUnits="userSpaceOnUse" x="126" y="93" width="311" height="129">
<path d="M436.002 93.7998H126.202V221.2H436.002V93.7998Z" fill="white"/>
</mask>
<g mask="url(#mask47_2505_100102)">
<path d="M171.102 177.8C170.602 177.8 170.102 177.4 170.102 176.8L169.702 146.2C169.602 142.2 171.102 138.5 173.902 135.6C174.302 135.2 174.902 135.2 175.302 135.6C175.702 136 175.702 136.6 175.302 137C172.902 139.5 171.602 142.8 171.702 146.3L172.202 176.9C172.102 177.4 171.602 177.8 171.102 177.8Z" fill="#3A5C91"/>
</g>
<mask id="mask48_2505_100102" style="mask-type:luminance" maskUnits="userSpaceOnUse" x="126" y="93" width="311" height="129">
<path d="M436.002 93.7998H126.202V221.2H436.002V93.7998Z" fill="white"/>
</mask>
<g mask="url(#mask48_2505_100102)">
<path d="M227.302 137.3C226.702 137.2 226.302 136.7 226.402 136.2L230.502 106C230.702 104.5 230.202 103 229.202 101.9C228.202 100.8 226.802 100.1 225.202 100.2L186.202 101.1C182.702 101.2 179.802 103.8 179.402 107.2L175.602 136.5C175.502 137 175.002 137.4 174.502 137.3C174.002 137.2 173.602 136.7 173.702 136.2L177.502 106.9C178.102 102.5 181.702 99.1998 186.202 98.9998L225.202 98.0999C227.202 98.0999 229.302 98.8998 230.702 100.5C232.102 102 232.702 104.1 232.502 106.2L228.402 136.4C228.302 136.9 227.802 137.3 227.302 137.3Z" fill="#3A5C91"/>
</g>
</svg>
