<svg width="321" height="97" viewBox="0 0 321 97" fill="none" xmlns="http://www.w3.org/2000/svg">
<path d="M30.9389 29.2598L30.231 32.3748C30.231 32.3748 32.7796 35.4898 34.9743 35.2774C37.169 35.065 35.0451 32.5872 35.0451 32.5872L34.7619 30.3925C34.7619 30.3925 33.8416 30.5341 32.9212 30.3217C32.0716 30.0385 30.9389 29.2598 30.9389 29.2598Z" fill="white"/>
<path d="M34.7619 35.4895C32.5672 35.4895 30.2309 32.6577 30.0894 32.5161C30.0894 32.4453 30.0186 32.4453 30.0186 32.3745L30.7265 29.2595C30.7265 29.1887 30.7973 29.1887 30.8681 29.1179C30.9389 29.1179 31.0097 29.1179 31.0097 29.1179C31.0097 29.1179 32.0717 29.8967 32.992 30.1091C33.8416 30.3214 34.7619 30.1798 34.7619 30.1798C34.8327 30.1798 34.8327 30.1798 34.9035 30.1798C34.9743 30.1798 34.9743 30.2506 34.9743 30.3214L35.2575 32.5161C35.4699 32.7993 36.461 34.0028 36.107 34.8524C35.9654 35.2064 35.6115 35.4187 35.0451 35.4895C34.9743 35.4895 34.8327 35.4895 34.7619 35.4895ZM30.4433 32.3745C30.7973 32.7993 33.0628 35.3479 34.9743 35.1356C35.3991 35.0648 35.6822 34.9232 35.753 34.7108C35.9654 34.1444 35.1867 33.0825 34.9035 32.7285L34.8327 32.6577L34.6203 30.6046C34.2663 30.6046 33.6292 30.6754 32.9212 30.463C32.2132 30.2506 31.4345 29.8259 31.0805 29.5427L30.4433 32.3745Z" fill="#363637"/>
<path d="M30.0188 26.4984C30.0896 24.4453 31.8595 22.817 33.9834 22.8878C36.1073 22.9586 37.7356 24.7285 37.6648 26.7816C37.594 28.8347 35.8241 30.463 33.7002 30.3922C31.5763 30.2506 29.948 28.5515 30.0188 26.4984Z" fill="white"/>
<path d="M33.8414 30.5333C33.7706 30.5333 33.7706 30.5333 33.6998 30.5333C32.6378 30.4625 31.6467 30.0377 30.9387 29.259C30.2308 28.4802 29.806 27.489 29.8768 26.4271C29.9476 24.2324 31.7883 22.6041 33.983 22.6749C35.0449 22.7457 36.0361 23.1705 36.744 23.9492C37.452 24.728 37.8768 25.7191 37.806 26.7811C37.7352 27.843 37.3104 28.7634 36.5316 29.5421C35.7529 30.1793 34.8325 30.5333 33.8414 30.5333ZM33.7706 23.0289C31.8591 23.0289 30.2308 24.5156 30.16 26.4271C30.0892 27.3475 30.4432 28.2678 31.1511 28.9758C31.7883 29.6837 32.7086 30.1085 33.6998 30.1085C34.6909 30.1793 35.6113 29.8253 36.3192 29.1882C37.0272 28.551 37.452 27.6306 37.452 26.7103C37.5228 25.7899 37.1688 24.8696 36.4608 24.1616C35.8237 23.4537 34.9033 23.0289 33.9122 23.0289C33.9122 23.0289 33.8414 23.0289 33.7706 23.0289Z" fill="#363637"/>
<path d="M28.8857 26.9944C28.8857 26.2156 29.5937 25.6493 30.3725 25.6493C31.1512 25.6493 31.7884 26.3572 31.7884 27.0652C31.7884 27.8439 31.0804 28.4103 30.3017 28.4103C29.5229 28.4103 28.8857 27.7731 28.8857 26.9944Z" fill="white"/>
<path d="M30.3724 28.6227C30.3016 28.6227 30.3016 28.6227 30.3724 28.6227C29.8769 28.6227 29.4521 28.4103 29.1689 28.1271C28.8857 27.8439 28.7441 27.4191 28.7441 26.9944C28.7441 26.1448 29.5229 25.4369 30.4432 25.5077C31.3636 25.5077 32.0716 26.2864 32.0008 27.136C32.0008 27.5607 31.7884 27.9147 31.5052 28.1979C31.1512 28.4811 30.7972 28.6227 30.3724 28.6227ZM29.0981 26.9944C29.0981 27.3483 29.2397 27.6315 29.4521 27.8439C29.6645 28.0563 30.0185 28.1979 30.3724 28.2687C30.7264 28.2687 31.0096 28.1979 31.2928 27.9147C31.576 27.7023 31.7176 27.4191 31.7176 27.0652C31.7176 26.428 31.222 25.8616 30.514 25.7908C30.514 25.7908 30.514 25.7908 30.4432 25.7908C29.6645 25.8616 29.0981 26.3572 29.0981 26.9944Z" fill="#363637"/>
<path d="M29.5938 26.4983C29.9477 26.1443 30.8681 26.0735 31.1513 27.1354L29.5938 26.4983Z" fill="white"/>
<path d="M31.2224 27.277C31.1516 27.277 31.0808 27.2062 31.0808 27.1354C31.01 26.7106 30.7976 26.4982 30.5145 26.4274C30.2313 26.3566 29.9481 26.4274 29.8065 26.569C29.7357 26.6398 29.5941 26.6398 29.5233 26.569C29.4525 26.4982 29.4525 26.3566 29.5233 26.2858C29.8065 26.0734 30.2313 25.9318 30.5853 26.0026C31.01 26.1442 31.2932 26.4274 31.4348 26.9938C31.364 27.1354 31.364 27.277 31.2224 27.277Z" fill="#363637"/>
<path d="M29.9473 26.994C30.2305 26.7108 30.8676 26.8524 31.1508 27.1356L29.9473 26.994Z" fill="white"/>
<path d="M31.1511 27.2762C31.0804 27.2762 31.0803 27.2762 31.0095 27.2054C30.868 27.0638 30.6556 26.993 30.3724 26.993C30.2308 26.993 30.0892 26.993 30.0184 27.0638C29.9476 27.1346 29.806 27.1346 29.7352 27.0638C29.6644 26.993 29.6644 26.8514 29.7352 26.7806C29.8768 26.639 30.0892 26.5682 30.3016 26.5682C30.6556 26.5682 31.0096 26.7098 31.1511 26.9222C31.2219 26.993 31.2219 27.1346 31.1511 27.2762Z" fill="#363637"/>
<path d="M37.452 24.1617C37.452 24.1617 36.1069 20.8343 32.4963 21.6131C28.6733 22.4626 28.7441 25.4361 28.7441 25.4361C28.7441 25.4361 26.691 25.9316 25.6291 26.4272C24.4963 26.9228 24.7795 27.4183 24.7795 27.4183L36.9565 24.3033L37.452 24.1617Z" fill="#2482F9" stroke="#0D1B44" stroke-width="0.353981" stroke-miterlimit="10"/>
<path d="M31.5761 27.8432C31.5761 27.8432 32.4257 27.4892 32.5673 26.6397C32.7797 25.7901 32.9212 25.7193 32.9212 25.7193C32.9212 25.7193 33.2752 25.7901 34.9743 25.6485C36.6734 25.5069 37.9478 25.6485 37.9478 25.6485C37.9478 25.6485 38.0894 25.4361 37.9478 24.9406C37.8062 24.445 37.523 24.1618 37.523 24.1618L30.8682 25.8609C30.8682 25.8609 31.2221 25.9317 31.5053 26.2857C31.7885 26.6397 31.5761 27.8432 31.5761 27.8432Z" fill="#363637"/>
<path d="M21.0272 58.2838C21.0272 58.2838 15.859 68.62 13.0272 71.0979C10.1953 73.5757 3.04492 82.0713 3.04492 82.0713L7.36349 86.5314C7.36349 86.5314 13.8059 80.7261 16.9918 77.7527C20.1776 74.7792 27.6112 66.0713 27.6112 66.0713L21.0272 58.2838Z" fill="#2482F9"/>
<path d="M19.4696 53.0455C19.4696 53.0455 17.1333 57.1517 30.797 73.0808C34.5492 77.4702 41.6288 89.8595 41.6288 89.8595L46.3721 86.2489C46.3721 86.2489 40.496 72.2312 39.2217 70.3198C37.8766 68.4083 33.558 56.7977 33.558 56.7977C33.558 56.7977 27.3279 54.603 24.9917 54.249C22.6554 54.0366 19.4696 53.0455 19.4696 53.0455Z" fill="#2482F9"/>
<path d="M36.6025 33.5054C36.6025 33.5054 38.514 34.6382 39.576 37.3284C40.6379 40.0187 42.7618 46.8151 42.7618 46.8151L53.452 51.9832L52.6732 56.4434C52.6732 56.4434 40.4255 54.7443 38.514 53.2575C36.6733 51.7708 36.3193 49.5054 36.3193 49.5054L36.6025 33.5054Z" fill="#A6CDFC" stroke="#0D1B44" stroke-width="0.530971" stroke-miterlimit="10"/>
<path d="M18.9739 55.1697C18.0536 53.8246 19.4695 45.8954 21.0978 41.7184C22.7261 37.5415 25.4872 30.1787 30.5845 31.0282C35.6818 31.8778 37.3809 33.1521 37.9473 35.63C38.5137 38.037 39.2216 38.5326 37.7349 44.5503C37.1685 46.9573 37.5225 59.1343 33.1332 57.4352C25.912 57.506 19.8943 56.5148 18.9739 55.1697Z" fill="#A6CDFC" stroke="#0D1B44" stroke-width="0.707961" stroke-miterlimit="10"/>
<path d="M28.2487 32.7266C22.7266 31.3815 20.2487 45.6115 22.7266 49.1513C25.2045 52.6912 36.8858 56.3725 36.8858 56.3725L37.877 51.7C37.877 51.7 30.5142 47.3107 29.523 46.0363C28.6735 44.762 33.7708 34.0718 28.2487 32.7266Z" fill="#E9F3FF" stroke="#0D1B44" stroke-width="0.530971" stroke-miterlimit="10"/>
<path d="M37.8765 51.487C37.2393 51.487 30.8677 47.9472 29.5226 46.0357C28.7438 44.903 29.3102 42.9915 29.9473 40.9384C30.3721 39.4517 30.8677 37.8942 30.7261 36.8322C30.6553 36.0535 30.3013 34.496 29.5934 33.6464C29.5226 33.5756 29.5226 33.434 29.5934 33.3632C29.6641 33.2924 29.8058 33.2924 29.8766 33.3632C30.5845 34.2128 31.0093 35.6995 31.0801 36.7614C31.2217 37.965 30.7261 39.5225 30.3013 41.0092C29.7349 42.8499 29.1686 44.8322 29.8058 45.7525C31.1509 47.664 37.3101 50.8499 37.8057 51.0622C37.8765 51.0622 37.9473 51.1331 37.9473 51.2038C38.0181 51.3454 38.0181 51.487 37.8765 51.487Z" fill="#0D1B44"/>
<path d="M37.0979 56.3727H37.0271C36.9564 56.3019 36.4608 56.1603 35.8944 56.0187C32.567 55.0275 23.8591 52.2665 22.2308 48.0895C21.5936 46.4612 21.7352 44.5497 21.806 42.8506C21.806 42.5674 21.806 42.3551 21.806 42.0719C21.806 42.0011 21.8768 41.9303 22.0184 41.9303C22.0892 41.9303 22.16 42.0011 22.16 42.1427C22.16 42.3551 22.16 42.6382 22.16 42.9214C22.0892 44.5497 22.0184 46.4612 22.5847 48.0187C24.1423 52.0541 32.7794 54.7444 36.036 55.7355C36.744 55.9479 37.098 56.0895 37.1687 56.1603C37.2395 56.2311 37.3103 56.3019 37.2395 56.3727C37.2395 56.3019 37.1687 56.3727 37.0979 56.3727Z" fill="#0D1B44"/>
<path d="M37.8769 52.1959C37.8769 52.1959 39.8592 52.5498 41.0627 53.2578C42.2663 54.0366 42.8326 55.5941 42.8326 55.5941C42.8326 55.5941 40.638 57.5764 39.3636 57.2932C37.8769 56.9392 38.3725 56.656 38.3725 56.656L40.638 55.7357C40.638 55.7357 40.9211 55.1693 39.222 54.9569C37.5937 54.7445 37.0981 54.7445 37.0981 54.7445L37.8769 52.1959Z" fill="white"/>
<path d="M39.6467 57.5055C39.5759 57.5055 39.4343 57.5055 39.3635 57.5055C38.5847 57.364 38.2308 57.1516 38.16 56.8684C38.16 56.7268 38.2308 56.5852 38.3016 56.5144L40.4962 55.5941C40.4962 55.5941 40.4962 55.5941 40.4962 55.5233C40.4254 55.4525 40.2131 55.2401 39.2927 55.0985C37.6644 54.8861 37.2396 54.8861 37.2396 54.8861C37.1688 54.8861 37.098 54.8861 37.098 54.8153C37.0272 54.7445 37.0272 54.7445 37.098 54.6737L37.8768 52.0543C37.8768 51.9835 38.0184 51.9127 38.0892 51.9127C38.16 51.9127 40.1423 52.2666 41.3458 53.0454C42.5493 53.8242 43.1865 55.3817 43.1865 55.4525C43.1865 55.5233 43.1865 55.594 43.1157 55.6648C42.9033 55.8064 40.9918 57.5055 39.6467 57.5055ZM38.5139 56.8684C38.5847 56.9392 38.7971 57.0808 39.4343 57.2224C40.3547 57.4348 41.983 56.2312 42.6201 55.6648C42.4785 55.3109 41.9122 54.1781 40.9918 53.541C40.0007 52.9038 38.514 52.6206 38.0184 52.479L37.3812 54.7445C37.6644 54.7445 38.2308 54.8153 39.2927 54.9569C40.1423 55.0277 40.6378 55.2401 40.7794 55.5941C40.8502 55.7357 40.8502 55.8772 40.7794 56.0188C40.7794 56.0896 40.7086 56.0896 40.7086 56.0896L38.5139 56.8684Z" fill="#363637"/>
<path d="M41.6997 89.576L43.7528 92.691L52.9563 88.0185L46.1599 86.2486L41.6997 89.576Z" fill="#363637"/>
<path d="M2.97442 82.0717L0.000976562 84.4787L7.00979 92.7619L7.29297 86.6026L2.97442 82.0717Z" fill="#363637"/>
<path d="M42.6198 87.5231C42.549 87.5231 42.4782 87.5231 42.4782 87.4523C42.4782 87.3815 40.4252 83.7709 39.434 81.5054C38.4429 79.3107 36.4606 76.4789 36.4606 76.4789C36.4606 76.4081 36.3898 76.4081 36.4606 76.3373L36.6729 74.9214L35.5402 74.9922C35.4694 74.9922 35.3986 74.9922 35.3986 74.9214C35.3986 74.8506 35.3986 74.7798 35.3986 74.709L36.3898 73.4346L35.257 73.5054C35.1862 73.5054 35.1154 73.5054 35.1154 73.4346C35.0446 73.293 25.4164 61.4701 24.5668 60.4082C23.6465 59.3462 23.3633 57.0807 23.2925 57.0099C23.2925 56.9392 23.3633 56.7975 23.4341 56.7975C23.5049 56.7975 23.6465 56.8684 23.6465 56.9391C23.6465 56.9391 23.9296 59.1338 24.7792 60.125C25.6288 61.1161 34.4783 72.0895 35.257 73.0807L36.6729 72.9391C36.7437 72.9391 36.8145 72.9391 36.8145 73.0099C36.8145 73.0807 36.8145 73.1515 36.8145 73.2223L35.8234 74.4966L36.8145 74.4258C36.8853 74.4258 36.8853 74.4258 36.9561 74.4966C37.0269 74.5674 37.0269 74.5674 37.0269 74.6382L36.8145 76.1957C37.0977 76.6205 38.8676 79.1691 39.788 81.2222C40.7791 83.4877 42.8322 87.0983 42.8322 87.1691C42.903 87.2399 42.8322 87.3815 42.7614 87.3815C42.6198 87.4523 42.6198 87.4523 42.6198 87.5231Z" fill="#0D1B44"/>
<path d="M41.0629 88.8679C40.9921 88.8679 40.9921 88.8679 40.9213 88.7971C40.8505 88.7263 40.8505 88.5848 40.9213 88.514L45.4522 84.9033C45.523 84.8326 45.6646 84.8326 45.7354 84.9033C45.8062 84.9741 45.8062 85.1157 45.7354 85.1865L41.2045 88.7971C41.1337 88.7971 41.1337 88.8679 41.0629 88.8679Z" fill="white"/>
<path d="M8.28377 85.1862C8.21298 85.1862 8.21297 85.1862 8.14217 85.1154L4.03601 81.08C3.96521 81.0092 3.96521 80.8676 4.03601 80.7968C4.1068 80.726 4.24839 80.726 4.31919 80.7968L8.42535 84.8322C8.49615 84.903 8.49615 85.0446 8.42535 85.1154C8.35456 85.1862 8.35457 85.1862 8.28377 85.1862Z" fill="white"/>
<path d="M5.38171 82.0012C5.31091 82.0012 5.3109 82.0012 5.24011 81.9304C5.16931 81.8596 5.16931 81.718 5.24011 81.6472L13.8064 73.718L13.8772 73.6472L15.7887 73.5056L14.7976 72.3021C14.7268 72.2313 14.7268 72.1605 14.7976 72.0897C14.7976 72.0189 14.8684 72.0189 14.9392 72.0189H16.4967L15.8595 70.5322C15.8595 70.4614 15.8595 70.4614 15.8595 70.3906C15.8595 70.3198 15.9303 70.3198 15.9303 70.3198C15.9303 70.3198 17.0631 69.8242 18.3374 67.7004C19.6825 65.4349 21.948 61.4703 22.0188 61.3995C22.0896 61.3287 22.1604 61.2579 22.2312 61.3287C22.302 61.3995 22.3728 61.4703 22.302 61.5411C22.302 61.6119 19.9657 65.5765 18.6206 67.842C17.5586 69.6827 16.5675 70.3198 16.1427 70.5322L16.7799 72.1605C16.7799 72.2313 16.7799 72.3021 16.7799 72.3021C16.7799 72.3729 16.7091 72.3729 16.6383 72.3729H15.1516L16.1427 73.5056C16.2135 73.5764 16.2135 73.6472 16.1427 73.718C16.1427 73.7888 16.0719 73.7888 16.0011 73.8596L13.8064 74.072L5.31091 81.9304C5.5233 82.0012 5.45251 82.0012 5.38171 82.0012Z" fill="#0D1B44"/>
<path d="M35.4702 55.665C35.3286 55.5943 35.2578 55.5235 35.3286 55.4527L36.7445 50.8509C36.7445 50.7801 36.8861 50.7093 36.9569 50.7093C37.0277 50.7093 37.0985 50.8509 37.0985 50.9217L35.6825 55.5235C35.6825 55.6651 35.6117 55.665 35.4702 55.665Z" fill="#0D1B44"/>
<path d="M58.6906 88.4441C56.9207 85.2582 57.9826 81.2937 61.0269 79.5946C64.0711 77.8954 67.9649 79.1698 69.7348 82.3556C71.5047 85.5414 70.4428 89.506 67.3985 91.2051C64.2835 92.9042 60.3897 91.6299 58.6906 88.4441Z" fill="#363637"/>
<path d="M67.4696 84.5495C66.9741 82.7088 65.1334 81.5761 63.3635 82.0009C61.5936 82.4964 60.5316 84.4079 61.0272 86.2486C61.5228 88.0893 63.3635 89.2221 65.1334 88.7973C66.9033 88.3725 67.9652 86.461 67.4696 84.5495Z" fill="#E1DCDC"/>
<path d="M64.284 89.1514C63.6468 89.1514 63.0096 89.0098 62.5141 88.6558C61.6645 88.1602 61.0981 87.3815 60.815 86.3903C60.3194 84.408 61.3813 82.4257 63.222 81.9302C64.1424 81.7178 65.0627 81.8594 65.9123 82.3549C66.7618 82.8505 67.3282 83.6293 67.6114 84.6204C67.8946 85.5408 67.753 86.5319 67.3282 87.3815C66.9034 88.231 66.1247 88.7974 65.2043 89.0806C64.9211 89.0806 64.6379 89.1514 64.284 89.1514ZM64.1424 82.1426C63.8592 82.1426 63.6468 82.1426 63.3636 82.2133C61.6645 82.6381 60.6734 84.4788 61.1689 86.2487C61.3813 87.0983 61.9477 87.8062 62.6557 88.3018C63.3636 88.7266 64.2132 88.8682 65.0627 88.6558C65.8415 88.4434 66.5495 87.877 66.9742 87.1691C67.399 86.3903 67.4698 85.5408 67.2574 84.6204C67.045 83.7709 66.4787 83.0629 65.7707 82.5673C65.2751 82.2841 64.7088 82.1426 64.1424 82.1426Z" fill="#E9F3FF" stroke="#0D1B44" stroke-width="0.353981" stroke-miterlimit="10"/>
<path d="M60.3896 80.585C60.248 80.585 60.1772 80.5142 60.1064 80.4434L44.7437 56.3727L42.6198 55.594C42.4074 55.5232 42.3366 55.3108 42.4074 55.1692C42.4782 54.9568 42.6906 54.886 42.8322 54.9568L45.0977 55.7355C45.1685 55.7355 45.2393 55.8063 45.3101 55.8771L60.7436 80.0186C60.8144 80.1602 60.8144 80.3726 60.602 80.5142C60.5312 80.585 60.4604 80.585 60.3896 80.585Z" fill="#363637"/>
<path d="M67.7526 82.6382C67.6818 82.6382 67.5402 82.5674 67.4694 82.4966L39.4341 48.8684C39.2925 48.7269 39.3633 48.5145 39.5049 48.3729C39.6465 48.2313 39.8589 48.3021 40.0005 48.4437L68.0357 82.0718C68.1773 82.2134 68.1065 82.4258 67.9649 82.5674C67.8941 82.6382 67.8234 82.6382 67.7526 82.6382Z" fill="#363637"/>
<path d="M49.7001 63.5941C49.5585 63.5941 49.4169 63.5233 49.4169 63.3817C49.3461 63.2401 49.4169 63.0278 49.5585 62.8862L50.8329 62.249C50.9744 62.1782 51.1868 62.249 51.3284 62.3906C51.3992 62.5322 51.3284 62.7446 51.1868 62.8862L49.9125 63.5941C49.7709 63.5941 49.7001 63.5941 49.7001 63.5941Z" fill="#363637"/>
<path d="M50.9746 66.0009C50.833 66.0009 50.7622 65.9301 50.6914 65.8593C50.5498 65.7178 50.6206 65.5054 50.7622 65.3638L52.8153 63.9478C52.9569 63.8063 53.1693 63.8771 53.3109 64.0186C53.4525 64.1602 53.3817 64.3726 53.2401 64.5142L51.187 65.9301C51.1162 66.0009 51.0454 66.0009 50.9746 66.0009Z" fill="#363637"/>
<path d="M38.4434 55.9483C38.4434 55.4527 38.8681 55.0279 39.3637 55.0279C39.8593 55.0279 40.2133 55.4527 40.2133 56.0191C40.2133 56.5146 39.7885 56.9394 39.2929 56.9394C38.7973 56.9394 38.4434 56.4439 38.4434 55.9483Z" fill="#363637"/>
<path d="M40.001 46.9572L53.0983 36.4086L61.3814 46.7448L48.2841 57.2934L40.001 46.9572Z" fill="#0D1B44"/>
<path d="M48.6382 57.2933L61.7355 46.7447L70.3018 57.5057L56.8505 67.5587L48.6382 57.2933Z" fill="#0D1B44"/>
<path d="M57.0625 67.8421L72.7792 56.0191L80.4252 66.143L65.3456 77.3288L57.0625 67.8421Z" fill="#0D1B44"/>
<path d="M65.8413 77.5414L81.5581 65.7185L89.204 75.8423L74.1245 87.0281L65.8413 77.5414Z" fill="#0D1B44"/>
<path d="M73.7705 89.1512C73.6997 89.1512 73.5581 89.1512 73.4873 89.0804L69.4519 85.045C69.3103 84.9034 69.3103 84.6911 69.4519 84.5495C69.5935 84.4079 69.8059 84.4079 69.9475 84.5495L73.7705 88.3724L88.496 77.399C88.6376 77.2575 88.85 77.3283 88.9916 77.4698C89.1332 77.6114 89.0624 77.8238 88.9208 77.9654L73.9828 89.0804C73.912 89.0804 73.8413 89.1512 73.7705 89.1512Z" fill="#363637"/>
<path d="M41.2752 48.5853C41.2044 48.5853 41.2045 48.5853 41.1337 48.5145C41.0629 48.4437 41.0629 48.3021 41.1337 48.2313L53.6646 38.2491C53.7354 38.1783 53.877 38.1783 53.9478 38.2491C54.0186 38.3198 54.0186 38.4614 53.9478 38.5322L41.4168 48.5145C41.346 48.5853 41.346 48.5853 41.2752 48.5853Z" fill="white"/>
<path d="M50.0536 58.9222C49.9828 58.9222 49.9828 58.9222 49.912 58.8514C49.8412 58.7806 49.8412 58.639 49.912 58.5682L62.4429 48.1612C62.5137 48.0904 62.6553 48.0904 62.7261 48.1612C62.7969 48.232 62.7969 48.3736 62.7261 48.4444L50.1952 58.8514C50.1952 58.9222 50.1244 58.9222 50.0536 58.9222Z" fill="white"/>
<path d="M58.5494 69.329C58.4786 69.329 58.4078 69.329 58.4078 69.2582C58.337 69.1874 58.337 69.0458 58.4786 68.975L73.7706 57.7892C73.8414 57.7184 73.983 57.7184 73.983 57.86C74.0538 57.9308 74.0538 58.0724 73.9122 58.1432L58.5494 69.329Z" fill="white"/>
<path d="M67.399 79.2399C67.3282 79.2399 67.2574 79.2399 67.2574 79.1691C67.1866 79.0983 67.1866 78.9567 67.3282 78.8859L81.983 67.8417C82.0538 67.7709 82.1954 67.7709 82.2662 67.8417C82.337 67.9125 82.337 68.0541 82.1954 68.1249L67.5406 79.1691C67.5406 79.2399 67.4698 79.2399 67.399 79.2399Z" fill="white"/>
<path d="M26.3371 67.7716C26.2663 67.7716 26.1955 67.7716 26.1955 67.7008C26.1955 67.7008 24.0008 64.6566 23.222 63.3823C22.4433 62.108 20.6734 59.0637 20.6734 59.0637C20.6026 58.9929 20.6734 58.8513 20.7442 58.8513C20.8149 58.7805 20.9566 58.8513 20.9566 58.9221C20.9566 58.9221 22.7265 61.9664 23.5052 63.2407C24.284 64.515 26.4786 67.4885 26.4786 67.5593C26.5494 67.63 26.5494 67.7716 26.3371 67.7716C26.4079 67.7716 26.4079 67.7716 26.3371 67.7716Z" fill="#0D1B44"/>
<path d="M40.9213 96.7998C62.3479 96.7998 79.7175 96.0074 79.7175 95.0299C79.7175 94.0524 62.3479 93.26 40.9213 93.26C19.4947 93.26 2.125 94.0524 2.125 95.0299C2.125 96.0074 19.4947 96.7998 40.9213 96.7998Z" fill="#E1DCDC"/>
<path d="M210.336 96.7998C264.333 96.7998 308.106 95.2149 308.106 93.2599C308.106 91.305 264.333 89.7202 210.336 89.7202C156.34 89.7202 112.567 91.305 112.567 93.2599C112.567 95.2149 156.34 96.7998 210.336 96.7998Z" fill="#E1DCDC"/>
<path d="M108.533 76.9061L107.329 76.1274C103.011 73.2955 100.462 68.4814 100.533 63.384L100.745 45.4018C101.028 42.0036 101.665 38.6762 102.727 35.4196L106.126 12.1984C106.834 7.17191 111.011 3.34892 116.108 3.06574C135.718 1.933 182.656 1.22504 195.046 1.22504L197.099 1.29584H241.913C247.081 1.29584 252.178 2.49938 256.992 4.90644C263.647 9.01262 274.196 17.0126 290.125 30.6054H295.647C307.824 33.5789 312.142 41.9328 313.983 52.0567C317.452 54.3929 319.717 59.4902 319.788 65.2955V72.092C319.788 74.853 317.523 77.1185 314.762 77.1185C314.549 77.1185 314.337 77.1185 314.125 77.0477C313.983 77.1185 313.771 77.1185 313.629 77.1185H313.133H312.496H314.337V81.2247H311.718C311.08 83.4901 310.089 85.4724 308.886 87.1008C308.532 87.5963 308.178 88.0211 307.824 88.3751C307.824 88.4459 307.753 88.4459 307.682 88.5167C307.541 88.6583 307.47 88.7291 307.328 88.8707C307.257 88.9414 307.116 89.0122 307.045 89.083C306.974 89.1538 306.903 89.2246 306.833 89.2954C305.134 90.7114 303.08 91.5609 300.957 91.5609H292.886C287.93 91.5609 283.753 87.2423 282.054 81.1539H256.284C256.213 81.1539 256.072 81.1539 255.93 81.1539H254.302H250.833H249.559C247.859 87.1716 243.682 91.4901 238.798 91.4901H231.222C231.01 91.4901 230.868 91.4901 230.656 91.4901C230.16 91.4901 229.736 91.4193 229.311 91.3485H228.532C224.568 90.2866 221.028 86.2512 219.612 81.0831H217.488H203.612C203.329 82.0742 203.045 83.0654 202.621 83.9149C200.568 88.4459 196.957 91.4901 192.851 91.4901H184.78C179.824 91.4901 175.647 87.1715 173.948 81.0831H149.736C149.594 81.0831 149.524 81.0831 149.453 81.0831H141.453C139.754 87.1008 135.577 91.4193 130.692 91.4193H123.117C122.904 91.4193 122.763 91.4193 122.55 91.4193C116.887 91.4193 112.143 85.614 111.152 77.9681L108.533 76.9061ZM108.533 76.9061V76.8353" stroke="#363637" stroke-width="1.06194" stroke-miterlimit="10"/>
<mask id="mask0_2589_16812" style="mask-type:luminance" maskUnits="userSpaceOnUse" x="100" y="1" width="221" height="92">
<path d="M320.001 1.93195H100.675V92.1262H320.001V1.93195Z" fill="white"/>
</mask>
<g mask="url(#mask0_2589_16812)">
<path d="M237.099 86.6755C238.161 84.41 237.169 81.0826 235.399 81.0118L232.638 80.941C230.727 82.9233 229.453 85.472 229.099 88.4454L228.674 92.056H230.161C232.851 92.056 235.47 90.0737 237.099 86.6755Z" fill="#F15067"/>
</g>
<mask id="mask1_2589_16812" style="mask-type:luminance" maskUnits="userSpaceOnUse" x="100" y="1" width="221" height="92">
<path d="M320.001 1.93195H100.675V92.1262H320.001V1.93195Z" fill="white"/>
</mask>
<g mask="url(#mask1_2589_16812)">
<path d="M110.09 40.0204L303.93 36.1974L291.824 32.5868C283.258 25.224 274.975 18.4275 266.833 12.3391C264.426 10.4276 259.258 6.81698 257.063 5.61344C253.877 3.77274 251.399 4.26832 248.001 4.26832H152.568C135.365 4.19752 110.09 40.0204 110.09 40.0204ZM246.514 31.2416C244.886 31.2416 243.258 31.2416 241.63 31.1708L235.399 13.1178C234.692 11.0647 235.895 8.72847 237.736 8.72847H246.656C252.674 8.72847 258.621 10.8524 263.718 14.8169L276.744 25.0824C279.718 27.4186 280.355 31.1 277.806 31.1L246.514 31.2416Z" fill="#3A5C91"/>
</g>
<mask id="mask2_2589_16812" style="mask-type:luminance" maskUnits="userSpaceOnUse" x="100" y="1" width="221" height="92">
<path d="M320.001 1.93195H100.675V92.1262H320.001V1.93195Z" fill="white"/>
</mask>
<g mask="url(#mask2_2589_16812)">
<path d="M183.931 39.1008H199.577L196.604 22.6053C196.108 19.9858 194.267 18.1451 192.073 18.1451H188.745C186.055 18.1451 183.931 20.8354 183.931 24.092V39.1008Z" fill="#0D1B44"/>
</g>
<mask id="mask3_2589_16812" style="mask-type:luminance" maskUnits="userSpaceOnUse" x="100" y="1" width="221" height="92">
<path d="M320.001 1.93195H100.675V92.1262H320.001V1.93195Z" fill="white"/>
</mask>
<g mask="url(#mask3_2589_16812)">
<path d="M219.895 39.1008H235.541L232.567 22.6053C232.072 19.9858 230.231 18.1451 228.037 18.1451H224.709C222.019 18.1451 219.895 20.8354 219.895 24.092V39.1008Z" fill="#0D1B44"/>
</g>
<mask id="mask4_2589_16812" style="mask-type:luminance" maskUnits="userSpaceOnUse" x="100" y="1" width="221" height="92">
<path d="M320.001 1.93195H100.675V92.1262H320.001V1.93195Z" fill="white"/>
</mask>
<g mask="url(#mask4_2589_16812)">
<path d="M258.054 23.3834C253.594 23.3834 248.639 28.3391 247.01 34.4276C245.311 40.516 247.577 45.4718 252.037 45.4718C256.497 45.4718 261.453 40.516 263.081 34.4276C264.709 28.3391 262.515 23.3834 258.054 23.3834ZM261.24 33.7196C259.824 38.8169 255.577 43.1355 252.037 43.1355C250.762 43.1355 249.842 42.6399 249.205 41.578C248.285 40.0913 248.143 37.6842 248.851 35.0648C250.267 29.9674 254.515 25.6489 258.054 25.6489C259.329 25.6489 260.249 26.1444 260.886 27.2064C261.807 28.6931 261.948 31.1709 261.24 33.7196Z" fill="#363637"/>
</g>
<mask id="mask5_2589_16812" style="mask-type:luminance" maskUnits="userSpaceOnUse" x="100" y="1" width="221" height="92">
<path d="M320.001 1.93195H100.675V92.1262H320.001V1.93195Z" fill="white"/>
</mask>
<g mask="url(#mask5_2589_16812)">
<path d="M221.099 27.5611H273.063C277.948 27.5611 282.762 29.2602 286.868 32.5169L292.673 37.1186H221.099V27.5611Z" fill="#3A5C91"/>
</g>
<mask id="mask6_2589_16812" style="mask-type:luminance" maskUnits="userSpaceOnUse" x="100" y="1" width="221" height="92">
<path d="M320.001 1.93195H100.675V92.1262H320.001V1.93195Z" fill="white"/>
</mask>
<g mask="url(#mask6_2589_16812)">
<path d="M203.895 5.54283L196.32 1.93222H241.984C247.223 1.93222 252.32 3.13576 257.063 5.54283H203.895Z" fill="#6EA5F4"/>
</g>
<mask id="mask7_2589_16812" style="mask-type:luminance" maskUnits="userSpaceOnUse" x="100" y="1" width="221" height="92">
<path d="M320.001 1.93195H100.675V92.1262H320.001V1.93195Z" fill="white"/>
</mask>
<g mask="url(#mask7_2589_16812)">
<path d="M192.993 59.4194C199.364 59.4194 204.603 66.7822 204.603 75.7733C204.603 84.7644 199.435 92.1272 192.993 92.1272H184.922V59.4194H192.993Z" fill="#0D1B44"/>
</g>
<mask id="mask8_2589_16812" style="mask-type:luminance" maskUnits="userSpaceOnUse" x="100" y="1" width="221" height="92">
<path d="M320.001 1.93195H100.675V92.1262H320.001V1.93195Z" fill="white"/>
</mask>
<g mask="url(#mask8_2589_16812)">
<path d="M301.099 59.4194C307.541 59.4194 312.709 66.7822 312.709 75.7733C312.709 84.7644 307.541 92.1272 301.099 92.1272H293.028V59.4194H301.099Z" fill="#363637"/>
</g>
<mask id="mask9_2589_16812" style="mask-type:luminance" maskUnits="userSpaceOnUse" x="100" y="1" width="221" height="92">
<path d="M320.001 1.93195H100.675V92.1262H320.001V1.93195Z" fill="white"/>
</mask>
<g mask="url(#mask9_2589_16812)">
<path d="M310.868 84.5514C308.815 89.0823 305.205 92.1265 301.099 92.1265H293.028V84.5514H310.868Z" fill="#3A5C91"/>
</g>
<mask id="mask10_2589_16812" style="mask-type:luminance" maskUnits="userSpaceOnUse" x="100" y="1" width="221" height="92">
<path d="M320.001 1.93195H100.675V92.1262H320.001V1.93195Z" fill="white"/>
</mask>
<g mask="url(#mask10_2589_16812)">
<path d="M293.028 92.1272C299.399 92.1272 304.638 84.8352 304.638 75.7733C304.638 66.7114 299.47 59.4194 293.028 59.4194C286.585 59.4194 281.417 66.7114 281.417 75.7733C281.417 84.8352 286.585 92.1272 293.028 92.1272Z" fill="#363637"/>
</g>
<mask id="mask11_2589_16812" style="mask-type:luminance" maskUnits="userSpaceOnUse" x="100" y="1" width="221" height="92">
<path d="M320.001 1.93195H100.675V92.1262H320.001V1.93195Z" fill="white"/>
</mask>
<g mask="url(#mask11_2589_16812)">
<path d="M202.763 84.5514C200.709 89.0823 197.099 92.1265 192.993 92.1265H184.922V84.5514H202.763Z" fill="#3A5C91"/>
</g>
<mask id="mask12_2589_16812" style="mask-type:luminance" maskUnits="userSpaceOnUse" x="100" y="1" width="221" height="92">
<path d="M320.001 1.93195H100.675V92.1262H320.001V1.93195Z" fill="white"/>
</mask>
<g mask="url(#mask12_2589_16812)">
<path d="M173.312 75.7733C173.312 84.8352 178.48 92.1272 184.922 92.1272C191.365 92.1272 196.533 84.7644 196.533 75.7733C196.533 66.7822 191.365 59.4194 184.922 59.4194C178.48 59.4194 173.312 66.7822 173.312 75.7733Z" fill="#0D1B44"/>
</g>
<mask id="mask13_2589_16812" style="mask-type:luminance" maskUnits="userSpaceOnUse" x="100" y="1" width="221" height="92">
<path d="M320.001 1.93195H100.675V92.1262H320.001V1.93195Z" fill="white"/>
</mask>
<g mask="url(#mask13_2589_16812)">
<path d="M313.275 77.6128H226.833H186.692L182.231 76.3385C178.55 75.2766 176.072 70.0377 176.497 64.3032L177.417 52.1262C177.984 45.1174 181.807 39.8785 186.408 39.8785H248.355C260.815 39.8785 296.355 42.9935 304.426 49.082C308.603 52.197 311.93 57.082 313.275 62.6041L316.249 74.4978C316.673 76.0553 315.47 77.6128 313.841 77.6128H313.275Z" fill="#6EA5F4"/>
</g>
<mask id="mask14_2589_16812" style="mask-type:luminance" maskUnits="userSpaceOnUse" x="100" y="1" width="221" height="92">
<path d="M320.001 1.93195H100.675V92.1262H320.001V1.93195Z" fill="white"/>
</mask>
<g mask="url(#mask14_2589_16812)">
<path d="M319.931 65.9327C319.86 60.1274 317.594 55.0301 314.125 52.6938C312.285 42.57 307.966 34.216 295.789 31.2426H214.798V47.8089L309.665 72.7999C310.727 75.7026 312.78 77.614 314.975 77.614C317.736 77.614 320.001 75.3486 320.001 72.5875L319.931 65.9327Z" fill="#6EA5F4"/>
</g>
<mask id="mask15_2589_16812" style="mask-type:luminance" maskUnits="userSpaceOnUse" x="100" y="1" width="221" height="92">
<path d="M320.001 1.93195H100.675V92.1262H320.001V1.93195Z" fill="white"/>
</mask>
<g mask="url(#mask15_2589_16812)">
<path d="M109.1 52.7643H240.71L254.444 81.7907H118.94L108.675 77.6845C105.985 69.1181 105.985 60.835 109.1 52.7643Z" fill="#0D1B44"/>
</g>
<mask id="mask16_2589_16812" style="mask-type:luminance" maskUnits="userSpaceOnUse" x="100" y="1" width="221" height="92">
<path d="M320.001 1.93195H100.675V92.1262H320.001V1.93195Z" fill="white"/>
</mask>
<g mask="url(#mask16_2589_16812)">
<path d="M238.869 59.4194C245.24 59.4194 250.479 66.7822 250.479 75.7733C250.479 84.7644 245.311 92.1272 238.869 92.1272H230.798V59.4194H238.869Z" fill="#363637"/>
</g>
<mask id="mask17_2589_16812" style="mask-type:luminance" maskUnits="userSpaceOnUse" x="100" y="1" width="221" height="92">
<path d="M320.001 1.93195H100.675V92.1262H320.001V1.93195Z" fill="white"/>
</mask>
<g mask="url(#mask17_2589_16812)">
<path d="M219.188 75.7733C219.188 84.8352 224.356 92.1272 230.798 92.1272C237.24 92.1272 242.409 84.7644 242.409 75.7733C242.409 66.7822 237.24 59.4194 230.798 59.4194C224.356 59.4194 219.188 66.7822 219.188 75.7733Z" fill="#F6F7F9"/>
</g>
<mask id="mask18_2589_16812" style="mask-type:luminance" maskUnits="userSpaceOnUse" x="100" y="1" width="221" height="92">
<path d="M320.001 1.93195H100.675V92.1262H320.001V1.93195Z" fill="white"/>
</mask>
<g mask="url(#mask18_2589_16812)">
<path d="M130.763 59.4194C137.206 59.4194 142.374 66.7822 142.374 75.7733C142.374 84.7644 137.206 92.1272 130.763 92.1272H122.692V59.4194H130.763Z" fill="#0D1B44"/>
</g>
<mask id="mask19_2589_16812" style="mask-type:luminance" maskUnits="userSpaceOnUse" x="100" y="1" width="221" height="92">
<path d="M320.001 1.93195H100.675V92.1262H320.001V1.93195Z" fill="white"/>
</mask>
<g mask="url(#mask19_2589_16812)">
<path d="M111.082 75.7733C111.082 84.8352 116.25 92.1272 122.693 92.1272C129.135 92.1272 134.303 84.7644 134.303 75.7733C134.303 66.7822 129.135 59.4194 122.693 59.4194C116.25 59.4194 111.082 66.7822 111.082 75.7733Z" fill="#F6F7F9"/>
</g>
<mask id="mask20_2589_16812" style="mask-type:luminance" maskUnits="userSpaceOnUse" x="100" y="1" width="221" height="92">
<path d="M320.001 1.93195H100.675V92.1262H320.001V1.93195Z" fill="white"/>
</mask>
<g mask="url(#mask20_2589_16812)">
<path d="M250.975 81.7912H305.7V77.685H250.975V81.7912Z" fill="#363637"/>
</g>
<mask id="mask21_2589_16812" style="mask-type:luminance" maskUnits="userSpaceOnUse" x="100" y="1" width="221" height="92">
<path d="M320.001 1.93195H100.675V92.1262H320.001V1.93195Z" fill="white"/>
</mask>
<g mask="url(#mask21_2589_16812)">
<path d="M256.497 81.7912H314.55V77.685H252.462V77.7558C252.391 79.9505 254.232 81.7912 256.497 81.7912Z" fill="#363637"/>
</g>
<mask id="mask22_2589_16812" style="mask-type:luminance" maskUnits="userSpaceOnUse" x="100" y="1" width="221" height="92">
<path d="M320.001 1.93195H100.675V92.1262H320.001V1.93195Z" fill="white"/>
</mask>
<g mask="url(#mask22_2589_16812)">
<path d="M305.629 76.9056C305.842 74.7109 304.142 72.7994 302.019 72.7994H274.408C272.213 72.7994 270.585 74.9941 271.151 77.1888L271.293 77.6135H305.558L305.629 76.9056Z" fill="#3A5C91"/>
</g>
<mask id="mask23_2589_16812" style="mask-type:luminance" maskUnits="userSpaceOnUse" x="100" y="1" width="221" height="92">
<path d="M320.001 1.93195H100.675V92.1262H320.001V1.93195Z" fill="white"/>
</mask>
<g mask="url(#mask23_2589_16812)">
<path d="M283.895 71.1716H299.824C300.815 71.1716 301.594 70.3928 301.594 69.4017V67.0654C301.594 66.0743 300.815 65.2955 299.824 65.2955H283.895C282.903 65.2955 282.125 66.0743 282.125 67.0654V69.4017C282.054 70.322 282.903 71.1716 283.895 71.1716Z" fill="white" stroke="#3A5C91" stroke-width="0.707961" stroke-miterlimit="10"/>
</g>
<mask id="mask24_2589_16812" style="mask-type:luminance" maskUnits="userSpaceOnUse" x="100" y="1" width="221" height="92">
<path d="M320.001 1.93195H100.675V92.1262H320.001V1.93195Z" fill="white"/>
</mask>
<g mask="url(#mask24_2589_16812)">
<path d="M260.603 65.8616C260.532 59.3484 256.214 53.6847 249.913 51.9148L249.63 51.844C245.24 40.021 239.789 34.9945 228.249 33.0122L223.718 26.9238L212.674 11.561C207.365 4.19819 200.71 2.35749 197.241 1.93271L195.188 1.86191C182.798 1.86191 135.86 2.56987 116.25 3.70261C111.153 3.9858 106.976 7.80878 106.268 12.8353L102.869 36.0564C101.808 39.3131 101.17 42.6405 100.887 46.0387L100.675 64.0209C100.604 69.1182 103.153 73.9324 107.471 76.7642L108.675 77.543C108.604 76.9058 108.604 76.3394 108.604 75.7023C108.604 65.2952 114.905 56.7289 122.692 56.7289C129.418 56.7289 135.011 63.0298 136.427 71.4545C136.993 74.9943 140.037 77.4722 143.436 77.4722H216.71C216.639 76.835 216.639 76.2686 216.639 75.6315C216.639 65.2244 222.94 56.6581 230.727 56.6581C237.099 56.6581 242.479 62.3926 244.249 70.1802C245.24 74.4279 248.922 77.4722 253.17 77.4722H260.745L260.603 65.8616ZM177.984 9.86188C178.338 7.24243 180.533 5.33094 183.152 5.33094C192.781 5.40173 200.497 6.03889 202.692 7.31322C205.382 8.79994 207.719 10.9946 209.63 13.8265L217.064 24.7999C218.763 27.2777 217.418 31.2423 214.869 31.2423H175.506L177.984 9.86188Z" fill="#2482F9"/>
</g>
<mask id="mask25_2589_16812" style="mask-type:luminance" maskUnits="userSpaceOnUse" x="100" y="1" width="221" height="92">
<path d="M320.001 1.93195H100.675V92.1262H320.001V1.93195Z" fill="white"/>
</mask>
<g mask="url(#mask25_2589_16812)">
<path d="M167.011 40.0205C167.011 38.7461 166.02 37.6842 164.816 37.6842H159.931C159.294 37.6842 158.798 38.1798 158.798 38.8169C158.798 39.4541 159.294 39.9497 159.931 39.9497L167.011 40.0205Z" fill="white" stroke="#636262" stroke-width="0.530971" stroke-miterlimit="10"/>
</g>
<mask id="mask26_2589_16812" style="mask-type:luminance" maskUnits="userSpaceOnUse" x="100" y="1" width="221" height="92">
<path d="M320.001 1.93195H100.675V92.1262H320.001V1.93195Z" fill="white"/>
</mask>
<g mask="url(#mask26_2589_16812)">
<path d="M164.816 42.3578H163.188C161.984 42.3578 160.993 41.3666 160.993 40.1631V39.9507H167.011V40.1631C166.94 41.3666 166.02 42.3578 164.816 42.3578Z" fill="#3A5C91"/>
</g>
<mask id="mask27_2589_16812" style="mask-type:luminance" maskUnits="userSpaceOnUse" x="100" y="1" width="221" height="92">
<path d="M320.001 1.93195H100.675V92.1262H320.001V1.93195Z" fill="white"/>
</mask>
<g mask="url(#mask27_2589_16812)">
<path d="M181.241 40.0205C181.241 38.7461 180.25 37.6842 179.046 37.6842H174.09C173.453 37.6842 172.958 38.1798 172.958 38.8169C172.958 39.4541 173.453 39.9497 174.09 39.9497L181.241 40.0205Z" fill="white" stroke="#636262" stroke-width="0.530971" stroke-miterlimit="10"/>
</g>
<mask id="mask28_2589_16812" style="mask-type:luminance" maskUnits="userSpaceOnUse" x="100" y="1" width="221" height="92">
<path d="M320.001 1.93195H100.675V92.1262H320.001V1.93195Z" fill="white"/>
</mask>
<g mask="url(#mask28_2589_16812)">
<path d="M179.046 42.3578H177.418C176.214 42.3578 175.223 41.3666 175.223 40.1631V39.9507H181.241V40.1631C181.241 41.3666 180.25 42.3578 179.046 42.3578Z" fill="#3A5C91"/>
</g>
<mask id="mask29_2589_16812" style="mask-type:luminance" maskUnits="userSpaceOnUse" x="100" y="1" width="221" height="92">
<path d="M320.001 1.93195H100.675V92.1262H320.001V1.93195Z" fill="white"/>
</mask>
<g mask="url(#mask29_2589_16812)">
<path d="M238.515 78.4628C237.523 84.4804 233.205 88.1619 228.957 86.7459C224.709 85.33 222.09 79.2415 223.081 73.2947C224.072 67.277 228.391 63.5956 232.639 65.0115C236.886 66.3566 239.506 72.4451 238.515 78.4628Z" fill="#E9F3FF" stroke="#0D1B44" stroke-width="0.353981" stroke-miterlimit="10"/>
</g>
<mask id="mask30_2589_16812" style="mask-type:luminance" maskUnits="userSpaceOnUse" x="100" y="1" width="221" height="92">
<path d="M320.001 1.93195H100.675V92.1262H320.001V1.93195Z" fill="white"/>
</mask>
<g mask="url(#mask30_2589_16812)">
<path d="M228.815 82.0738C226.337 81.2242 224.78 77.6844 225.417 74.2154C225.983 70.7464 228.532 68.5517 231.01 69.4013C233.488 70.2508 235.045 73.7906 234.408 77.2596C233.842 80.7287 231.293 82.9233 228.815 82.0738Z" fill="#D2DAEF" stroke="#0D1B44" stroke-width="0.353981" stroke-miterlimit="10"/>
</g>
<mask id="mask31_2589_16812" style="mask-type:luminance" maskUnits="userSpaceOnUse" x="100" y="1" width="221" height="92">
<path d="M320.001 1.93195H100.675V92.1262H320.001V1.93195Z" fill="white"/>
</mask>
<g mask="url(#mask31_2589_16812)">
<path d="M229.099 78.0383C228.179 77.7552 227.612 76.4808 227.896 75.2065C228.179 73.9322 229.028 73.1534 229.878 73.4366C230.798 73.7198 231.365 74.9941 231.081 76.2684C230.869 77.5428 230.019 78.3215 229.099 78.0383Z" fill="#0D1B44"/>
</g>
<mask id="mask32_2589_16812" style="mask-type:luminance" maskUnits="userSpaceOnUse" x="100" y="1" width="221" height="92">
<path d="M320.001 1.93195H100.675V92.1262H320.001V1.93195Z" fill="white"/>
</mask>
<g mask="url(#mask32_2589_16812)">
<path d="M130.409 73.2243C129.418 67.2066 125.099 63.5252 120.851 64.9411C116.603 66.357 113.984 72.4455 114.975 78.3924C115.966 84.41 120.285 88.0914 124.533 86.6755C128.78 85.2596 131.4 79.2419 130.409 73.2243Z" fill="#E9F3FF" stroke="#0D1B44" stroke-width="0.353981" stroke-miterlimit="10"/>
</g>
<mask id="mask33_2589_16812" style="mask-type:luminance" maskUnits="userSpaceOnUse" x="100" y="1" width="221" height="92">
<path d="M320.001 1.93195H100.675V92.1262H320.001V1.93195Z" fill="white"/>
</mask>
<g mask="url(#mask33_2589_16812)">
<path d="M126.302 74.4274C126.869 77.8964 125.382 81.4362 122.904 82.2857C120.426 83.1353 117.877 80.9406 117.311 77.4716C116.745 74.0026 118.231 70.4628 120.709 69.6132C123.187 68.7637 125.736 70.8875 126.302 74.4274Z" fill="#D2DAEF" stroke="#0D1B44" stroke-width="0.353981" stroke-miterlimit="10"/>
</g>
<mask id="mask34_2589_16812" style="mask-type:luminance" maskUnits="userSpaceOnUse" x="100" y="1" width="221" height="92">
<path d="M320.001 1.93195H100.675V92.1262H320.001V1.93195Z" fill="white"/>
</mask>
<g mask="url(#mask34_2589_16812)">
<path d="M122.975 75.3481C123.188 76.6224 122.621 77.8967 121.772 78.1799C120.851 78.4631 119.931 77.6843 119.789 76.41C119.577 75.1357 120.143 73.8614 120.993 73.5782C121.913 73.295 122.763 74.0737 122.975 75.3481Z" fill="#0D1B44"/>
</g>
<mask id="mask35_2589_16812" style="mask-type:luminance" maskUnits="userSpaceOnUse" x="100" y="1" width="221" height="92">
<path d="M320.001 1.93195H100.675V92.1262H320.001V1.93195Z" fill="white"/>
</mask>
<g mask="url(#mask35_2589_16812)">
<path d="M132.391 38.0387H108.675C107.471 38.0387 107.471 38.4634 108.675 38.4634H132.391V38.0387Z" fill="#3A5C91"/>
</g>
<mask id="mask36_2589_16812" style="mask-type:luminance" maskUnits="userSpaceOnUse" x="100" y="1" width="221" height="92">
<path d="M320.001 1.93195H100.675V92.1262H320.001V1.93195Z" fill="white"/>
</mask>
<g mask="url(#mask36_2589_16812)">
<path d="M245.948 51.0658L262.373 54.11C263.647 54.3224 264.992 53.0481 265.275 51.2074L263.93 49.2251C261.665 45.9685 258.833 43.703 255.576 42.6411L242.55 38.3933C240.709 37.7561 238.798 40.588 239.364 43.2074C240.284 47.4552 242.762 50.4994 245.948 51.0658Z" fill="#2482F9"/>
</g>
<mask id="mask37_2589_16812" style="mask-type:luminance" maskUnits="userSpaceOnUse" x="100" y="1" width="221" height="92">
<path d="M320.001 1.93195H100.675V92.1262H320.001V1.93195Z" fill="white"/>
</mask>
<g mask="url(#mask37_2589_16812)">
<path d="M252.815 47.95C255.788 48.9412 258.479 50.9235 260.603 53.8261L245.877 51.065C242.833 50.4987 240.355 47.6668 239.364 43.6314C239.435 43.6314 239.576 43.7022 239.718 43.7022L252.815 47.95Z" fill="white" stroke="#363637" stroke-width="0.530971" stroke-miterlimit="10"/>
</g>
<mask id="mask38_2589_16812" style="mask-type:luminance" maskUnits="userSpaceOnUse" x="100" y="1" width="221" height="92">
<path d="M320.001 1.93195H100.675V92.1262H320.001V1.93195Z" fill="white"/>
</mask>
<g mask="url(#mask38_2589_16812)">
<path d="M310.514 41.7203L308.603 42.5699C306.337 43.561 304.921 45.7557 304.426 48.9415L304.143 50.9946C305.346 52.9769 307.187 54.3928 308.249 54.1097L314.266 52.4813C313.275 48.1628 312.213 44.5522 310.514 41.7203Z" fill="#2482F9"/>
</g>
<mask id="mask39_2589_16812" style="mask-type:luminance" maskUnits="userSpaceOnUse" x="100" y="1" width="221" height="92">
<path d="M320.001 1.93195H100.675V92.1262H320.001V1.93195Z" fill="white"/>
</mask>
<g mask="url(#mask39_2589_16812)">
<path d="M312.497 46.1803L311.576 46.605C309.098 47.8086 307.329 50.1449 306.55 53.6139C307.187 53.9678 307.753 54.1802 308.178 54.0386L314.196 52.4103C313.7 50.2157 313.134 48.0918 312.497 46.1803Z" fill="white" stroke="#363637" stroke-width="0.530971" stroke-miterlimit="10"/>
</g>
<mask id="mask40_2589_16812" style="mask-type:luminance" maskUnits="userSpaceOnUse" x="100" y="1" width="221" height="92">
<path d="M320.001 1.93195H100.675V92.1262H320.001V1.93195Z" fill="white"/>
</mask>
<g mask="url(#mask40_2589_16812)">
<path d="M304.497 49.6501H264.285L262.444 54.1102H307.895L304.497 49.6501Z" fill="#363637"/>
</g>
<mask id="mask41_2589_16812" style="mask-type:luminance" maskUnits="userSpaceOnUse" x="100" y="1" width="221" height="92">
<path d="M320.001 1.93195H100.675V92.1262H320.001V1.93195Z" fill="white"/>
</mask>
<g mask="url(#mask41_2589_16812)">
<path d="M194.196 28.6226C194.55 30.3926 195.966 31.6669 197.948 31.6669H206.019L205.594 29.2598L204.745 24.5873C204.32 22.5342 202.621 21.1891 200.426 21.1891H195.612C194.621 21.1891 193.63 22.0386 193.488 23.0298C193.418 23.4545 193.417 23.8085 193.417 24.1625L194.196 28.6226Z" fill="#6EA5F4" stroke="#363637" stroke-width="0.530971" stroke-miterlimit="10"/>
</g>
<mask id="mask42_2589_16812" style="mask-type:luminance" maskUnits="userSpaceOnUse" x="100" y="1" width="221" height="92">
<path d="M320.001 1.93195H100.675V92.1262H320.001V1.93195Z" fill="white"/>
</mask>
<g mask="url(#mask42_2589_16812)">
<path d="M206.019 31.6666L206.444 33.8613C206.656 35.2064 205.453 36.5515 204.108 36.5515C202.904 36.5515 201.984 35.8436 201.771 34.7108L201.205 31.7374L206.019 31.6666Z" fill="#3A5C91"/>
</g>
<mask id="mask43_2589_16812" style="mask-type:luminance" maskUnits="userSpaceOnUse" x="100" y="1" width="221" height="92">
<path d="M320.001 1.93195H100.675V92.1262H320.001V1.93195Z" fill="white"/>
</mask>
<g mask="url(#mask43_2589_16812)">
<path d="M229.099 45.1881H228.887V46.3208C228.887 47.312 228.037 48.1615 227.046 48.1615H222.727L222.657 48.2323C222.09 49.1527 222.727 50.427 223.86 50.427H229.028C230.019 50.427 230.869 49.5774 230.869 48.5863V47.0288C230.94 46.0376 230.09 45.2589 229.099 45.1881Z" fill="#3A5C91"/>
</g>
<mask id="mask44_2589_16812" style="mask-type:luminance" maskUnits="userSpaceOnUse" x="100" y="1" width="221" height="92">
<path d="M320.001 1.93195H100.675V92.1262H320.001V1.93195Z" fill="white"/>
</mask>
<g mask="url(#mask44_2589_16812)">
<path opacity="0.28" d="M226.267 45.1881C225.205 45.1881 224.214 45.7545 223.647 46.6748L222.727 48.1615H227.046C228.037 48.1615 228.886 47.312 228.886 46.3208V45.1881H226.267Z" fill="white"/>
</g>
<mask id="mask45_2589_16812" style="mask-type:luminance" maskUnits="userSpaceOnUse" x="100" y="1" width="221" height="92">
<path d="M320.001 1.93195H100.675V92.1262H320.001V1.93195Z" fill="white"/>
</mask>
<g mask="url(#mask45_2589_16812)">
<path d="M170.055 76.9058C169.701 76.9058 169.347 76.6226 169.347 76.1978L168.781 39.0298C168.71 36.198 169.772 33.5786 171.754 31.5255C172.037 31.2423 172.462 31.2423 172.745 31.5255C173.028 31.8087 173.028 32.2334 172.745 32.5166C171.046 34.2865 170.126 36.6228 170.197 39.1006L170.763 76.2686C170.763 76.6226 170.409 76.9058 170.055 76.9058Z" fill="#3A5C91"/>
</g>
<mask id="mask46_2589_16812" style="mask-type:luminance" maskUnits="userSpaceOnUse" x="100" y="1" width="221" height="92">
<path d="M320.001 1.93195H100.675V92.1262H320.001V1.93195Z" fill="white"/>
</mask>
<g mask="url(#mask46_2589_16812)">
<path d="M210.479 76.9058C210.125 76.9058 209.771 76.6226 209.771 76.1978L209.205 39.0298C209.134 36.198 210.196 33.5786 212.178 31.5255C212.462 31.2423 212.886 31.2423 213.17 31.5255C213.453 31.8087 213.453 32.2334 213.17 32.5166C211.47 34.2865 210.55 36.6228 210.621 39.1006L211.187 76.2686C211.187 76.6226 210.904 76.9058 210.479 76.9058Z" fill="#3A5C91"/>
</g>
<mask id="mask47_2589_16812" style="mask-type:luminance" maskUnits="userSpaceOnUse" x="100" y="1" width="221" height="92">
<path d="M320.001 1.93195H100.675V92.1262H320.001V1.93195Z" fill="white"/>
</mask>
<g mask="url(#mask47_2589_16812)">
<path d="M132.462 61.4014C132.108 61.4014 131.754 61.1182 131.754 60.6935L131.471 39.0298C131.4 36.198 132.462 33.5786 134.445 31.5255C134.728 31.2423 135.153 31.2423 135.436 31.5255C135.719 31.8087 135.719 32.2334 135.436 32.5166C133.737 34.2865 132.816 36.6228 132.887 39.1006L133.241 60.7643C133.17 61.1182 132.816 61.4014 132.462 61.4014Z" fill="#3A5C91"/>
</g>
<mask id="mask48_2589_16812" style="mask-type:luminance" maskUnits="userSpaceOnUse" x="100" y="1" width="221" height="92">
<path d="M320.001 1.93195H100.675V92.1262H320.001V1.93195Z" fill="white"/>
</mask>
<g mask="url(#mask48_2589_16812)">
<path d="M172.249 32.7293C171.824 32.6585 171.541 32.3046 171.612 31.9506L174.515 10.5702C174.656 9.50821 174.302 8.44627 173.594 7.66751C172.886 6.88875 171.895 6.39317 170.762 6.46397L143.152 7.10115C140.674 7.17194 138.621 9.01263 138.338 11.4197L135.648 32.163C135.577 32.517 135.223 32.8001 134.869 32.7293C134.515 32.6585 134.232 32.3046 134.302 31.9506L136.993 11.2073C137.417 8.09229 139.966 5.75602 143.152 5.61443L170.762 4.97726C172.178 4.97726 173.665 5.54363 174.656 6.67637C175.647 7.73831 176.072 9.22501 175.931 10.7117L173.028 32.0922C172.957 32.4462 172.603 32.7293 172.249 32.7293Z" fill="#3A5C91"/>
</g>
</svg>
