<svg width="200" height="22" viewBox="0 0 200 22" fill="none" xmlns="http://www.w3.org/2000/svg">
<path d="M8.18128 4.88917L8.86473 0.93924H3.41724L2.73379 4.88917H8.18128ZM5.44749 20.6487L7.86971 6.66815H2.42222L0 20.6386H5.44749V20.6487ZM12.9855 20.6487L14.2218 13.5328C14.5333 11.7438 15.1665 10.6583 16.845 10.6583C18.3928 10.6583 18.5436 11.8845 18.3023 13.2715L17.0259 20.6587H22.4734L23.9207 12.2865C24.584 8.44712 23.2574 6.28622 19.6391 6.28622C17.5686 6.28622 16.0811 7.19078 14.5534 8.86925L14.9354 6.6782H9.96026L7.53803 20.6487H12.9855ZM30.6145 21.0507C35.6398 21.0507 38.3435 19.0808 38.846 16.1761C39.7506 10.9497 30.8557 12.2563 31.1974 10.3065C31.318 9.613 31.9713 9.32153 32.9161 9.32153C33.3382 9.32153 33.7101 9.43209 33.9513 9.66326C34.2026 9.90448 34.3232 10.2261 34.3031 10.6784H39.248C39.5797 6.96967 36.1826 6.27617 33.1975 6.27617C30.2124 6.27617 26.5238 7.31139 25.9007 10.8894C24.966 16.2967 33.6799 14.5178 33.288 16.7591C33.1171 17.744 32.1824 18.0154 31.3381 18.0154C30.8155 18.0154 30.3733 17.8546 30.0717 17.5933C29.7602 17.3018 29.6194 16.8696 29.72 16.3168H24.5338C24.172 20.0758 27.4585 21.0608 30.5944 21.0608L30.6145 21.0507ZM44.2231 21.0507C46.4745 21.0507 47.9017 20.518 49.6003 18.5983L49.2485 20.6487H54.304L56.7262 6.6782H51.2787L50.1129 13.3921C49.741 15.553 49.0374 16.749 47.4595 16.749C46.1529 16.749 45.6001 16.1359 45.9318 14.2162L47.2383 6.66815H41.7909L40.3134 15.171C39.6199 19.1712 41.2381 21.0407 44.2231 21.0407V21.0507ZM61.5707 20.6487L62.4049 15.8243C62.9275 12.8091 64.2341 11.7438 66.4654 11.7438C66.8272 11.7438 67.2091 11.8543 67.5609 11.9046L68.5258 6.35657L68.0634 6.29627C67.983 6.29627 67.9127 6.28622 67.8323 6.28622C65.7116 6.28622 64.1939 7.32144 63.0582 9.5125H63.0079L63.5004 6.68825H58.5555L56.1332 20.6587H61.5807L61.5707 20.6487ZM71.0585 21.0507C73.0988 21.0507 74.7472 20.6286 76.5462 19.1612V20.6587H82.1847L82.2349 20.3874C81.6319 19.8044 81.6721 19.4024 81.8128 18.5983L82.9485 12.0654C83.5214 8.72854 83.5616 6.27617 77.0588 6.27617C71.6415 6.27617 69.2695 8.00489 68.7569 10.9699H73.9933C74.3351 9.77382 75.3803 9.613 76.1442 9.613C76.7171 9.613 77.9031 9.74366 77.7222 10.7588C77.2699 13.372 68.0031 10.4874 66.8975 16.8395C66.395 19.7441 68.4755 21.0507 71.0686 21.0507H71.0585ZM74.0637 17.9048C72.9883 17.9048 72.4154 17.4224 72.536 16.7289C72.8476 14.9198 75.1291 15.3419 77.0689 14.4675C76.8679 16.3872 75.9733 17.9048 74.0637 17.9048ZM88.9287 20.6487L90.1649 13.5328C90.4765 11.7438 91.1097 10.6583 92.7882 10.6583C94.336 10.6583 94.4867 11.8845 94.2455 13.2715L92.9691 20.6587H98.4166L99.8639 12.2865C100.527 8.44712 99.2005 6.28622 95.5823 6.28622C93.5118 6.28622 92.0243 7.19078 90.4966 8.86925L90.8785 6.6782H85.9034L83.4812 20.6487H88.9287ZM107.472 21.0507C109.382 21.0507 111.231 20.6487 112.749 19.7441C114.297 18.8094 115.493 17.342 116.096 15.2414H110.598C110.246 16.3369 109.533 17.3219 108.116 17.3219C106.517 17.3219 105.975 15.9349 106.337 13.8343C106.628 12.186 107.342 10.0251 109.382 10.0251C109.985 10.0251 110.427 10.216 110.699 10.5879C110.98 10.9296 111.101 11.4121 111.02 12.0252H116.548C116.87 7.89433 113.694 6.29627 110.025 6.29627C105.492 6.29627 101.723 9.04011 100.889 13.8142C100.075 18.538 103.04 21.0608 107.462 21.0608L107.472 21.0507ZM124.066 21.0507C127.262 21.0507 130.921 19.9049 132.458 16.4374H127.242C126.709 17.2616 125.855 17.6636 124.991 17.6636C123.553 17.6636 122.478 16.5681 122.769 14.9198H133.172C134.127 9.85422 131.684 6.28622 126.599 6.28622C122.197 6.28622 118.317 9.22103 117.523 13.8042C116.709 18.4978 119.674 21.0507 124.076 21.0507H124.066ZM128.207 12.0955H123.262C123.523 10.598 124.599 9.67331 126.227 9.67331C127.513 9.67331 128.438 10.8191 128.217 12.0955H128.207ZM139.293 20.6487L140.248 15.161H134.7L133.745 20.6487H139.293ZM148.67 21.0507C150.58 21.0507 152.429 20.6487 153.947 19.7441C155.495 18.8094 156.691 17.342 157.294 15.2414H151.796C151.444 16.3369 150.731 17.3219 149.313 17.3219C147.715 17.3219 147.173 15.9349 147.534 13.8343C147.826 12.186 148.539 10.0251 150.58 10.0251C151.183 10.0251 151.625 10.216 151.896 10.5879C152.178 10.9296 152.298 11.4121 152.218 12.0252H157.746C158.068 7.89433 154.892 6.29627 151.223 6.29627C146.69 6.29627 142.921 9.04011 142.087 13.8142C141.273 18.538 144.238 21.0608 148.66 21.0608L148.67 21.0507ZM165.374 21.0507C169.777 21.0507 173.596 18.6486 174.48 13.5328C175.234 9.19087 172.752 6.28622 167.907 6.28622C163.063 6.28622 159.666 8.97981 158.821 13.8343C157.997 18.6084 160.972 21.0608 165.374 21.0608V21.0507ZM166.018 17.3219C164.631 17.3219 163.857 16.1761 164.319 13.5328C164.59 11.9548 165.475 10.015 167.334 10.015C168.762 9.93463 169.385 11.4824 169.033 13.5328C168.581 16.1761 167.485 17.3219 166.018 17.3219ZM179.998 20.6587L181.194 13.7539C181.486 12.0754 182.049 10.6583 183.637 10.6583C185.074 10.6583 185.325 11.4824 184.973 13.5328L183.737 20.6487H189.185L190.381 13.7438C190.672 12.0654 191.235 10.6482 192.823 10.6482C194.26 10.6482 194.511 11.4724 194.16 13.5227L192.923 20.6386H198.371L199.798 12.377C200.461 8.56773 199.597 6.27617 195.597 6.27617C193.577 6.27617 191.878 7.16063 190.411 8.8391C190.019 7.34154 188.833 6.27617 186.38 6.27617C184.421 6.27617 182.471 7.69332 181.606 8.75869L181.968 6.6782H176.963L174.541 20.6487H179.988L179.998 20.6587Z" fill="#2B2982"/>
</svg>
