<svg width="33" height="26" viewBox="0 0 33 26" fill="none" xmlns="http://www.w3.org/2000/svg">
<path d="M15.8679 25.6816C15.6941 25.6817 15.5213 25.6555 15.3553 25.6039L14.0105 25.1851C11.2152 24.018 8.833 22.0413 7.17027 19.5094C4.39311 15.3293 4.27166 9.14274 6.8613 3.75094L7.59444 2.22399L9.25448 2.56153C10.1798 2.74967 11.1335 2.75059 12.0592 2.56425C12.985 2.37791 13.864 2.00805 14.6445 1.47653L15.8697 0.641602L17.0939 1.47653C17.8744 2.00805 18.7535 2.37791 19.6792 2.56425C20.6049 2.75059 21.5586 2.74967 22.4839 2.56153L24.144 2.22399L24.8762 3.75094C27.4659 9.14274 27.3444 15.3293 24.5673 19.5102C22.9049 22.0416 20.5233 24.018 17.7288 25.1851L16.3813 25.6039C16.2151 25.6555 16.042 25.6817 15.8679 25.6816ZM14.1819 24.7118L15.5044 25.1226C15.7411 25.1968 15.9947 25.1968 16.2313 25.1226L17.5636 24.7092C20.2542 23.5791 22.5463 21.6719 24.1467 19.2316C26.8256 15.1953 26.9354 9.20438 24.4217 3.96885L23.8582 2.79551L22.5822 3.05445C21.591 3.25626 20.5694 3.25754 19.5777 3.05816C18.5861 2.85878 17.6444 2.46279 16.8082 1.89359L15.8679 1.25242L14.9276 1.89359C14.0914 2.46275 13.1497 2.85867 12.158 3.05805C11.1663 3.25743 10.1448 3.25621 9.15357 3.05445L7.87751 2.79551L7.31404 3.96885C4.80031 9.20438 4.90747 15.1954 7.58908 19.2307C9.19161 21.6737 11.4874 23.5824 14.1819 24.7118Z" fill="#363637"/>
<path d="M22.916 4.69172C21.706 4.9377 20.459 4.93879 19.2486 4.69493C18.0382 4.45107 16.889 3.96724 15.8686 3.27191C14.8483 3.96724 13.699 4.45107 12.4886 4.69493C11.2782 4.93879 10.0312 4.9377 8.82125 4.69172C6.48969 9.54683 6.67811 14.8377 8.9811 18.307C9.37847 18.9052 11.7788 22.4682 15.8686 23.497C15.882 23.497 15.8615 23.5041 15.8686 23.5059C15.8758 23.5077 15.8543 23.5014 15.8686 23.497C19.9585 22.4682 22.3588 18.9052 22.7562 18.307C25.0609 14.8377 25.2476 9.54683 22.916 4.69172Z" fill="#2482F9"/>
<path d="M20.8248 9.79608L20.4765 9.44782C20.3673 9.33914 20.2194 9.27814 20.0653 9.27814C19.9112 9.27814 19.7634 9.33914 19.6541 9.44782L14.757 14.344L11.6968 11.2847C11.5875 11.176 11.4397 11.115 11.2856 11.115C11.1315 11.115 10.9836 11.176 10.8743 11.2847L10.5261 11.6329C10.4174 11.7423 10.3563 11.8903 10.3563 12.0446C10.3563 12.1989 10.4174 12.3468 10.5261 12.4563L13.9801 15.9103C13.9846 15.9167 13.9897 15.9227 13.9953 15.9282L14.3436 16.2711C14.3981 16.3243 14.4626 16.3662 14.5334 16.3942C14.6042 16.4223 14.68 16.436 14.7561 16.4345C14.8322 16.4359 14.9077 16.4223 14.9784 16.3942C15.0491 16.3661 15.1135 16.3243 15.1678 16.2711L15.516 15.9255C15.5211 15.9209 15.5256 15.9158 15.5294 15.9103L20.8221 10.6185C20.8763 10.5647 20.9194 10.5007 20.9489 10.4303C20.9783 10.3598 20.9936 10.2842 20.9939 10.2078C20.9941 10.1315 20.9793 10.0558 20.9503 9.98514C20.9213 9.91449 20.8786 9.85024 20.8248 9.79608Z" fill="white"/>
</svg>
